<?xml version="1.0" encoding="UTF-8" standalone="no"?>
<!-- Generator: Avocode 1.1.1 - http://avocode.com -->
<svg xmlns="http://www.w3.org/2000/svg" xmlns:xlink="http://www.w3.org/1999/xlink" width="9" height="17" viewBox="0 0 9 17">
    <desc>Created with Avocode</desc>
    <path d="M8.4,-0.01C8.4,-0.01,0.47,8.03,0.47,8.03C0.47,8.03,1.08,8.65,1.08,8.65C1.08,8.65,9.01,0.61,9.01,0.61C9.01,0.61,8.4,-0.01,8.4,-0.01C8.4,-0.01,8.4,-0.01,8.4,-0.01M0.61,8.24C0.61,8.24,8.63,16.38,8.63,16.38C8.63,16.38,8.02,17.01,8.02,17.01C8.02,17.01,-0.01,8.87,-0.01,8.87C-0.01,8.87,0.61,8.24,0.61,8.24C0.61,8.24,0.61,8.24,0.61,8.24" fill="#eb4200" />
</svg>