<svg xmlns="http://www.w3.org/2000/svg" preserveAspectRatio="xMidYMid" width="51" height="53" viewBox="0 0 51 53"><defs><style>.cls-2 { fill: #000000; stroke: #ff4700; stroke-linejoin: round; stroke-width: 1px; fill-opacity: 0; }</style></defs><path d="M47.509 47.8l-1.71 1.709-8.746-8.746 1.154-1.97-24-24-1.97 1.154-8.745-8.746 1.709-1.709 9.248 9.247c.326-.46.633-.908.982-1.382 3.852-5.239 7.76-9.477 7.799-9.519.199-.216.478-.338.77-.338.292 0 .571.122.77.338.039.042 3.947 4.28 7.799 9.519 5.263 7.155 7.931 12.71 7.931 16.509 0 3.129-.877 6.049-2.374 8.551l9.383 9.383zm-11.116-6.993c-3.027 3.48-7.453 5.693-12.393 5.693-9.098 0-16.5-7.462-16.5-16.634 0-3.085 1.799-7.353 5.28-12.672l23.613 23.613zm-13.395.621c.893 0 1.785-.105 2.65-.311.273-.065.464-.312.459-.595-.005-.282-.204-.524-.479-.579-6.669-1.35-11.51-7.31-11.51-14.171 0-.215.015-.451.044-.701.034-.291-.144-.564-.422-.647-.278-.083-.575.047-.704.309-1.284 2.605-1.553 4.204-1.553 5.086 0 6.401 5.165 11.609 11.515 11.609z" id="path-1" class="cls-2" fill-rule="evenodd"/></svg>