<svg xmlns="http://www.w3.org/2000/svg" preserveAspectRatio="xMidYMid" width="56" height="51" viewBox="0 0 56 51"><defs><style>.cls-2 { fill: #000000; stroke: #ff4700; stroke-linejoin: round; stroke-width: 1px; opacity: 0.8; fill-opacity: 0; }</style></defs><path d="M52.488 26.532c-.058 1.083-3.481 8.531-4.465 9.682-.983 1.151-8.677 5.508-8.677 5.508-.257.21-1.682 1.288-1.682 2.701v3.068l-8.295.009-.007-2.815c-.019-.52-.11-1.038-.173-1.556-.181-.592-.036-1.71.048-2.145.964-4.223 4.512-6.718 4.899-7.013.215-.163 1.912-1.425 6.622-1.732.259-.021.52-.201.75-.353.293-.191.597-.391.819-.651.36-.423.768-.779 1.11-1.248 2.29-3.136 4.534-3.766 4.869-3.89.446-.212 2.159.049 1.336 1.17-.051.008-2.617 3.55-2.785 3.833-.295.5-.628.704-.941 1.055-.286.321-.603.615-.895.93 0 0 1.64-.954 2.034-1.373.176-.187.26-.456.399-.678.161-.257.333-.507.508-.754.219-.308.44-.616.673-.914.297-.38.606-.752.912-1.126.191-.232.406-.456.563-.7.776-1.204-.111-1.925-.954-2.015.041-.139.429-3.781.497-4.393.193-1.755.385-3.056 1.409-3.41.264-.092.451-.061.648.143.233.24.371 1.515.438 2.322 0 0 .449 4.326.34 6.345zm-10.84-5.875c-.517-.002-1.034-.194-1.427-.573l-1.371-1.329.004 11.403-10.853-.018-10.842.018-.008-11.403-1.372 1.33c-.393.379-.91.57-1.426.572-.517 0-1.036-.189-1.429-.569-.789-.761-.792-1.995-.005-2.757l13.676-13.257c.297-.286.677-.471 1.084-.54v-.007l.297-.028.025.003.023-.003.297.028v.006c.406.07.787.254 1.083.541l13.678 13.256c.787.763.786 1.996-.006 2.758-.393.379-.912.569-1.428.569zm-5.485-4.508l-8.162-7.911-8.163 7.911.007 11.649 4.812.005-.01-6.669 3.008-.004v-.001h.641v.001l3.034.004.013 6.669 4.825-.005-.005-11.649zm-22.489 15.086c.222.26.526.46.819.652.23.151.491.332.75.353 4.709.307 6.407 1.568 6.621 1.731.387.296 3.936 2.79 4.899 7.014.085.434.229 1.553.048 2.145-.063.518-.153 1.036-.172 1.556l-.008 2.815-8.295-.009v-3.068c0-1.413-1.424-2.491-1.682-2.702 0 0-7.694-4.357-8.677-5.507-.984-1.151-4.407-8.6-4.465-9.683-.108-2.018.34-6.345.34-6.345.067-.806.206-2.081.439-2.322.197-.204.383-.234.647-.143 1.025.354 1.216 1.655 1.41 3.411.068.611.456 4.253.496 4.392-.843.091-1.729.811-.953 2.016.157.243.372.467.563.7.306.373.614.746.911 1.125.233.299.454.606.673.915.176.247.347.497.509.753.139.223.223.491.399.679.393.418 2.034 1.373 2.034 1.373-.292-.316-.609-.61-.895-.93-.313-.351-.647-.556-.942-1.055-.166-.283-2.732-3.825-2.785-3.833-.822-1.121.89-1.382 1.337-1.17.335.124 2.579.753 4.869 3.889.342.47.749.825 1.11 1.248z" id="path-1" class="cls-2" fill-rule="evenodd"/></svg>