<svg xmlns="http://www.w3.org/2000/svg" xmlns:xlink="http://www.w3.org/1999/xlink" preserveAspectRatio="xMidYMid" width="50" height="49" viewBox="0 0 50 49">
  <defs>
    <style>

      .cls-2 {
        fill: #000000;
        stroke: #ff4700;
        stroke-linejoin: round;
        stroke-width: 1px;
        fill-opacity: 0;
      }
    </style>
  </defs>
  <path d="M48.395,32.168 C48.395,32.168 44.268,34.240 44.268,34.240 C44.268,34.240 44.268,38.495 44.268,38.495 C44.268,39.882 43.253,41.369 41.956,41.882 C41.956,41.882 28.725,47.122 28.725,47.122 C28.369,47.262 27.990,47.328 27.609,47.328 C26.567,47.328 25.514,46.831 24.922,45.976 C24.922,45.976 19.732,38.488 19.732,38.488 C19.732,38.488 21.565,44.120 21.565,44.120 C21.787,44.801 21.713,45.476 21.355,46.026 C20.998,46.574 20.406,46.919 19.690,46.997 C19.690,46.997 6.087,48.480 6.087,48.480 C5.990,48.489 5.893,48.495 5.797,48.495 C5.199,48.495 4.631,48.293 4.171,47.913 C3.637,47.471 3.314,46.843 3.262,46.144 C3.262,46.144 0.666,10.933 0.666,10.933 C0.644,10.879 0.616,10.827 0.616,10.769 C0.616,10.769 0.616,10.243 0.616,10.243 C0.616,10.243 0.507,8.768 0.507,8.768 C0.507,8.768 0.616,8.912 0.616,8.912 C0.616,8.912 0.616,5.441 0.616,5.441 C0.616,5.411 0.637,5.388 0.641,5.360 C0.649,5.297 0.644,5.234 0.660,5.172 C0.776,4.729 1.097,4.374 1.571,4.136 C1.423,3.841 1.367,3.537 1.435,3.245 C1.548,2.753 1.959,2.369 2.590,2.164 C2.590,2.164 7.079,0.697 7.079,0.697 C7.464,0.571 7.927,0.505 8.422,0.505 C9.434,0.505 10.493,0.782 11.183,1.229 C11.183,1.229 47.477,24.729 47.477,24.729 C48.034,25.091 48.329,25.564 48.308,26.063 C48.288,26.562 47.953,27.010 47.367,27.322 C47.367,27.322 46.713,27.671 46.713,27.671 C46.713,27.671 48.626,29.219 48.626,29.219 C49.212,29.620 49.529,30.170 49.490,30.752 C49.450,31.331 49.062,31.833 48.395,32.168 ZM25.650,45.480 C26.214,46.293 27.473,46.671 28.399,46.307 C28.399,46.307 41.630,41.066 41.630,41.066 C42.466,40.736 43.189,39.784 43.351,38.865 C43.351,38.865 29.802,44.858 29.802,44.858 C28.499,45.435 26.811,44.999 25.954,43.867 C25.954,43.867 8.989,21.441 8.989,21.441 C8.989,21.441 25.650,45.480 25.650,45.480 ZM4.143,46.078 C4.177,46.536 4.388,46.949 4.738,47.237 C5.086,47.524 5.532,47.652 5.992,47.606 C5.992,47.606 19.595,46.123 19.595,46.123 C20.042,46.075 20.405,45.870 20.614,45.548 C20.824,45.225 20.864,44.814 20.726,44.389 C20.726,44.389 20.084,42.416 20.084,42.416 C20.084,42.416 3.987,43.969 3.987,43.969 C3.987,43.969 4.143,46.078 4.143,46.078 ZM3.643,39.298 C3.643,39.298 18.561,37.742 18.561,37.742 C18.561,37.742 17.982,35.963 17.982,35.963 C17.982,35.963 15.744,32.733 15.744,32.733 C15.744,32.733 3.240,33.829 3.240,33.829 C3.240,33.829 3.643,39.298 3.643,39.298 ZM2.814,28.048 C2.814,28.048 12.497,28.048 12.497,28.048 C12.497,28.048 8.615,22.447 8.615,22.447 C8.615,22.447 2.401,22.447 2.401,22.447 C2.401,22.447 2.814,28.048 2.814,28.048 ZM2.021,17.294 C2.021,17.294 5.044,17.294 5.044,17.294 C5.044,17.294 1.661,12.414 1.661,12.414 C1.661,12.414 2.021,17.294 2.021,17.294 ZM1.498,10.080 C1.498,10.080 26.661,43.341 26.661,43.341 C27.257,44.133 28.532,44.460 29.444,44.058 C29.444,44.058 43.385,37.890 43.385,37.890 C43.385,37.890 43.385,36.146 43.385,36.146 C43.385,36.146 31.103,41.976 31.103,41.976 C30.689,42.172 30.233,42.266 29.773,42.266 C28.803,42.266 27.821,41.851 27.212,41.108 C27.212,41.108 1.498,9.720 1.498,9.720 C1.498,9.720 1.498,10.080 1.498,10.080 ZM1.498,8.329 C1.498,8.329 27.897,40.553 27.897,40.553 C28.526,41.321 29.820,41.611 30.722,41.183 C30.722,41.183 43.385,35.173 43.385,35.173 C43.385,35.173 43.385,34.680 43.385,34.680 C43.385,34.680 36.215,38.281 36.215,38.281 C35.767,38.507 35.251,38.616 34.733,38.616 C33.800,38.616 32.848,38.266 32.215,37.624 C32.215,37.624 32.042,37.454 32.042,37.454 C32.030,37.463 32.022,37.476 32.008,37.486 C32.008,37.486 30.707,38.276 30.707,38.276 C29.495,39.011 27.780,38.721 26.883,37.627 C26.883,37.627 3.487,9.097 3.487,9.097 C3.487,9.097 1.498,7.123 1.498,7.123 C1.498,7.123 1.498,8.329 1.498,8.329 ZM31.407,36.824 C31.407,36.824 9.617,15.186 9.617,15.186 C9.617,15.186 27.568,37.076 27.568,37.076 C28.195,37.841 29.398,38.046 30.246,37.530 C30.246,37.530 31.407,36.824 31.407,36.824 ZM10.942,1.593 C10.320,1.189 9.355,0.940 8.422,0.940 C7.974,0.940 7.558,0.998 7.217,1.109 C7.217,1.109 2.726,2.576 2.726,2.576 C2.247,2.733 1.940,3.005 1.861,3.342 C1.815,3.542 1.860,3.757 1.975,3.972 C1.981,3.970 1.986,3.965 1.996,3.963 C1.996,3.963 2.024,4.061 2.024,4.061 C2.098,4.178 2.185,4.295 2.302,4.408 C2.302,4.408 13.588,15.278 13.588,15.278 C13.588,15.278 22.425,9.029 22.425,9.029 C22.425,9.029 10.942,1.593 10.942,1.593 ZM48.096,29.920 C48.096,29.920 45.870,28.120 45.870,28.120 C45.870,28.120 35.348,33.740 35.348,33.740 C34.927,33.964 34.424,34.084 33.889,34.084 C33.011,34.084 32.153,33.761 31.592,33.221 C31.592,33.221 2.130,4.848 2.130,4.848 C1.828,4.963 1.619,5.135 1.542,5.337 C1.542,5.337 4.143,8.511 4.143,8.511 C4.143,8.511 32.843,37.009 32.843,37.009 C33.555,37.730 34.914,37.954 35.817,37.499 C35.817,37.499 47.996,31.384 47.996,31.384 C48.369,31.197 48.591,30.945 48.609,30.689 C48.627,30.435 48.439,30.154 48.096,29.920 ZM7.367,4.681 C6.139,4.681 5.177,4.059 5.177,3.266 C5.177,2.475 6.139,1.854 7.367,1.854 C8.594,1.854 9.556,2.475 9.556,3.266 C9.556,4.059 8.595,4.681 7.367,4.681 ZM7.367,2.289 C6.417,2.289 5.614,2.736 5.615,3.266 C5.615,3.797 6.418,4.246 7.367,4.246 C8.317,4.246 9.118,3.797 9.118,3.266 C9.118,2.737 8.317,2.289 7.367,2.289 Z" id="path-1" class="cls-2" fill-rule="evenodd"/>
</svg>
