<svg xmlns="http://www.w3.org/2000/svg" preserveAspectRatio="xMidYMid" width="48" height="44" viewBox="0 0 48 44"><defs><style>.cls-2 { fill: #000000; stroke: #ff4700; stroke-linejoin: round; stroke-width: 1px; opacity: 0.8; fill-opacity: 0; }</style></defs><path d="M8.976 13.777c-3.563 2.465-6.488 5.782-8.476 9.656 4.366 8.509 13.25 14.334 23.5 14.334 2.872 0 5.636-.458 8.224-1.303l-3.578-3.492c-1.517.327-3.074.495-4.646.495-4.111 0-8.117-1.142-11.587-3.301-2.761-1.72-5.101-4.022-6.859-6.733 1.701-2.623 3.948-4.862 6.593-6.561l-3.171-3.095zm15.024 17.988c1.043 0 2.054-.134 3.017-.383l-14.375-14.027c-.255.939-.392 1.925-.392 2.943 0 6.333 5.261 11.467 11.75 11.467zm-20.562-31.265h2.466l10.08 9.837c2.528-.803 5.221-1.237 8.016-1.237 10.25 0 19.134 5.825 23.5 14.333-1.958 3.816-4.825 7.091-8.317 9.544l8.317 8.116v2.407h-2.466l-41.596-40.593v-2.407zm39.008 22.933c-1.758-2.711-4.098-5.013-6.859-6.732l-.544-.327c.457 1.224.707 2.546.707 3.924 0 2.621-.902 5.037-2.419 6.968l2.688 2.622c2.573-1.686 4.762-3.886 6.427-6.455z" id="path-1" class="cls-2" fill-rule="evenodd"/></svg>