<svg xmlns="http://www.w3.org/2000/svg" viewBox="-395 407 43 36" enable-background="new -395 407 43 36"><path d="M-515.9 34.7l-1.9-1.5.7-.3c.6-.3.9-.8.9-1.3s-.3-1-.8-1.3l-36.3-23.5c-.7-.4-1.7-.7-2.8-.7-.5 0-1 .1-1.3.2l-4.5 1.5c-.6.2-1 .6-1.2 1.1-.1.3 0 .6.1.9-.5.2-.8.6-.9 1v3.8l-.1-.1.1 1.5v.5c0 .1 0 .1.1.2l2.6 35.2c.1.7.4 1.3.9 1.8.5.4 1 .6 1.6.6h.3l13.6-1.5c.7-.1 1.3-.4 1.7-1 .4-.5.4-1.2.2-1.9l-1.8-5.6 5.2 7.5c.6.9 1.6 1.4 2.7 1.4.4 0 .8-.1 1.1-.2l13.2-5.2c1.3-.5 2.3-2 2.3-3.4v-4.3l4.1-2.1c.7-.3 1.1-.8 1.1-1.4 0-.9-.3-1.5-.9-1.9zm-46.7-25.9c.1-.3.4-.6.9-.8l4.5-1.5c.3-.1.8-.2 1.2-.2.9 0 1.9.3 2.5.7l11.5 7.4-8.8 6.2-11.3-10.9-.3-.3v-.1c-.2 0-.3-.3-.2-.5zm-.2 9.1l3.4 4.9h-3l-.4-4.9zm.7 10h6.2l3.9 5.6h-9.7l-.4-5.6zm.8 11.4l12.5-1.1 2.2 3.2.6 1.8-14.9 1.6-.4-5.5zm16.9 8.6l.6 2c.1.4.1.8-.1 1.2-.2.3-.6.5-1 .6l-13.6 1.5c-.5 0-.9-.1-1.3-.4-.4-.3-.6-.7-.6-1.2l-.2-2.1 16.2-1.6zm21.5-1.3l-13.2 5.2c-.9.4-2.2 0-2.7-.8l-16.7-24 17 22.4c.9 1.1 2.5 1.6 3.8 1l13.5-6c-.1.9-.8 1.8-1.7 2.2zm1.8-3.2l-13.9 6.2c-.9.4-2.2.1-2.8-.7l-25.2-33.3v-.4l25.7 31.4c.6.7 1.6 1.2 2.6 1.2.5 0 .9-.1 1.3-.3l12.3-5.8v1.7zm0-2.7l-12.7 6c-.9.4-2.2.1-2.8-.6l-26.4-32.3v-1.2l2 2 23.4 28.5c.9 1.1 2.6 1.4 3.8.6l1.3-.8.2.2c.6.6 1.6 1 2.5 1 .5 0 1-.1 1.5-.3l7.2-3.6v.5zm-33.8-20l21.8 21.6-1.2.7c-.8.5-2 .3-2.7-.5l-17.9-21.8zm38.4 16.2l-12.2 6.1c-.9.5-2.3.2-3-.5l-28.7-28.5-2.6-3.2c.1-.2.3-.4.6-.5l29.5 28.4c.6.5 1.4.9 2.3.9.5 0 1-.1 1.5-.3l10.5-5.6 2.2 1.8c.3.2.5.5.5.8 0 .1-.2.4-.6.6zM-557.1 10.2c1.2 0 2.2-.6 2.2-1.4s-1-1.4-2.2-1.4c-1.2 0-2.2.6-2.2 1.4 0 .8.9 1.4 2.2 1.4zm0-2.4c1 0 1.8.4 1.8 1s-.8 1-1.8 1-1.8-.4-1.8-1 .8-1 1.8-1z" fill="none"/><path fill="#F04B23" d="M-379 421.4c.7 0 1.5 0 2.2.1-1.6.4-3.9.9-5.6.9-1.1 0-1.5-.2-1.6-.3.3-.3 1.4-.6 5-.7m11 0c3.6.1 4.7.4 5 .6-.1.1-.5.3-1.6.3-1.3 0-3.2-.3-5.6-.9h2.2m-.5-14.4c-1.5 1.3-2.8 5.7-3 6.2l1 3.2-2.3 3.2c.1-.6.1-1.2.1-1.9-.1-2-.2-3.5-.8-3.7-.6.2-.7 1.7-.8 3.7 0 .7 0 1.4.1 1.9l-2.3-3.2 1-3.1s-1.1-4.7-3-6.3l-.2.2s2.3 4.6 2.5 6l-1.1 3.3 3 4.2c-.3 0-.7-.1-1.1-.1l-.1-.1-3.7-5.2c-1.4-1.2-4.2-1.7-4.2-1.7l-.1.3c1.4.5 3.2 1.6 3.7 1.9l3.4 4.7c-.8 0-1.6-.1-2.5-.1-3 .1-5.9.2-6 1.6 0 .1 0 .3.1.4.4.7 1.3.9 2.6.9 2.1 0 5.1-.7 7-1.2l.6.6c-.7.2-1.8.7-2.5 1.5v.1l-.4 3-1.9 2.4.2.2 2.4-2.2.4-3c.6-.6 1.7-1 2.3-1.2.1.2.2.4.3.5v.1c-.3 0-.8.2-.8.7v.1c.1.5.5.8.9 1l.3 3.4h.3l.2-3.4c.4-.2.9-.5 1-1.1v-.1c0-.5-.4-.7-.8-.7v-.1c.2-.1.3-.3.4-.5.6.2 1.7.6 2.3 1.3l.3 2.9 2.4 2.3.2-.2-2-2.4-.4-2.9-.1-.1c-.7-.8-1.8-1.2-2.5-1.5l.6-.6c1.9.5 4.8 1.2 7 1.2 1.2 0 2.2-.2 2.6-.9.1-.1.1-.3.1-.4-.1-1.4-3.1-1.5-6-1.6-.9 0-1.7 0-2.5.1l3.4-4.7c.5-.3 2.3-1.4 3.7-1.9l-.1-.3s-2.8.5-4.2 1.7l-3.7 5.2-.1.1c-.4 0-.8.1-1.1.1l3-4.2-1.1-3.4c.1-1.4 2.5-6 2.5-6l-.5-.2zm15.8 23.7h-41.6c-.4 0-.7.3-.7.7 0 .3.2.5.5.6v.1l2.3 2.3-1.7 1.7-.2-.2c-.1-.1-.1-.1-.2-.1s-.1 0-.2.1-.1.3 0 .4l.2.2-.2.2c-.1.1-.1.3 0 .4 0 .1.1.1.2.1s.1 0 .2-.1l.2-.2 1.7 1.7-1.7 1.7-.2-.2c-.1-.1-.1-.1-.2-.1s-.1 0-.2.1-.1.3 0 .4l.2.2-.2.2c-.1.1-.1.3 0 .4l.2.1c.1 0 .1 0 .2-.1l.2-.2 1.7 1.7v.30000000000000004c.1.1.1.1.2.1h.2c.1 0 .1 0 .2-.1 0 0 .1-.1.1-.2v-.1l1.7-1.7 1.7 1.7v.30000000000000004c.1.1.1.1.2.1h.2c.1 0 .1 0 .2-.1l.1-.1v-.1l1.7-1.7 1.7 1.7v.30000000000000004c.1.1.1.1.2.1h.2c.1 0 .1 0 .2-.1v-.30000000000000004l1.7-1.7 1.7 1.7v.30000000000000004c.1.1.1.1.2.1h.2c.1 0 .1 0 .2-.1l.1-.1v-.1l1.7-1.7 1.7 1.7v.2s0 .1.1.1c.1.1.1.1.2.1h.2c.1 0 .1 0 .2-.1v-.30000000000000004l1.7-1.7 1.7 1.7v.30000000000000004c.1.1.1.1.2.1h.2c.1 0 .1 0 .2-.1l.1-.1v-.1l1.7-1.7 1.7 1.7v.1c0 .1 0 .1.1.1 0 0 .1.1.2.1h.2c.1 0 .1 0 .2-.1 0 0 0-.1.1-.1v-.2l1.7-1.7 1.7 1.7v.1c0 .1.1.3.3.3h.2c.1 0 .3-.1.3-.3v-.1l1.7-1.7 1.7 1.7v.30000000000000004c.1.1.1.1.2.1h.2c.1 0 .1 0 .2-.1l.1-.1v-.1l1.7-1.7 1.7 1.7v.2s0 .1.1.1c.1.1.1.1.2.1h.2c.1 0 .1 0 .2-.1 0 0 .1-.1.1-.2v-.1l1.7-1.7.2.2.2.1c.1 0 .1 0 .2-.1s.1-.3 0-.4l-.2-.2.2-.2c.1-.1.1-.3 0-.4-.1-.1-.1-.1-.2-.1s-.1 0-.2.1l-.2.2-1.7-1.7 1.7-1.7.2.2c.1.1.1.1.2.1s.1 0 .2-.1.1-.3 0-.4l-.2-.2.2-.2c.1-.1.1-.3 0-.4-.1-.1-.1-.1-.2-.1s-.1 0-.2.1l-.2.2-1.7-1.7 2.3-2.3v-.1c.3-.1.5-.3.5-.6-.4-.7-.7-1-1.1-1zm-.6 1.4l-1.9 1.9-1.7-1.7.2-.2h3.4zm-5.9 1.9l-1.7-1.7.2-.2h2.9l.2.2-1.6 1.7zm-4.1 0l-1.7-1.7.2-.2h2.9l.2.2-1.6 1.7zm-4.1 0l-1.7-1.7.2-.2h2.9l.2.2-1.6 1.7zm-4.1 0l-1.7-1.7.2-.2h2.9l.2.2-1.6 1.7zm-4.1 0l-1.7-1.7.2-.2h2.9l.2.2-1.6 1.7zm-4 0l-1.7-1.7.2-.2h2.9l.2.2-1.6 1.7zm-4.1 0l-1.7-1.7.2-.2h2.9l.2.2-1.6 1.7zm-4.1 0l-1.7-1.7.2-.2h2.9l.2.2-1.6 1.7zm-4.1 0l-1.9-1.9h3.3l.2.2-1.6 1.7zm22.5 2.1l-1.7-1.7 1.7-1.7 1.7 1.7-1.7 1.7zm-20.4 0l-1.7-1.7 1.7-1.7 1.7 1.7-1.7 1.7zm32.6 0l-1.7-1.7 1.7-1.7 1.7 1.7-1.7 1.7zm-4.1 0l-1.7-1.7 1.7-1.7 1.7 1.7-1.7 1.7zm-4.1 0l-1.7-1.7 1.7-1.7 1.7 1.7-1.7 1.7zm-12.2 0l-1.7-1.7 1.7-1.7 1.7 1.7-1.7 1.7zm-4.1 0l-1.7-1.7 1.7-1.7 1.7 1.7-1.7 1.7zm-4.1 0l-1.7-1.7 1.7-1.7 1.7 1.7-1.7 1.7zm12.3 0l-1.7-1.7 1.7-1.7 1.7 1.7-1.7 1.7zm18.3 2.1l-1.7-1.7 1.7-1.7 1.7 1.7-1.7 1.7zm-8.1 0l-1.7-1.7 1.7-1.7 1.7 1.7-1.7 1.7zm-4.1 0l-1.7-1.7 1.7-1.7 1.7 1.7-1.7 1.7zm8.2 0l-1.7-1.7 1.7-1.7 1.7 1.7-1.7 1.7zm-12.3 0l-1.7-1.7 1.7-1.7 1.7 1.7-1.7 1.7zm-4.1 0l-1.7-1.7 1.7-1.7 1.7 1.7-1.7 1.7zm-4 0l-1.7-1.7 1.7-1.7 1.7 1.7-1.7 1.7zm-4.1 0l-1.7-1.7 1.7-1.7 1.7 1.7-1.7 1.7zm-4.1 0l-1.7-1.7 1.7-1.7 1.7 1.7-1.7 1.7zm-4.1 0l-1.7-1.7 1.7-1.7 1.7 1.7-1.7 1.7zm34.7 2l-1.7-1.7 1.7-1.7 1.7 1.7-1.7 1.7zm-4.1 0l-1.7-1.7 1.7-1.7 1.7 1.7-1.7 1.7zm-4.1 0l-1.7-1.7 1.7-1.7 1.7 1.7-1.7 1.7zm-4 0l-1.7-1.7 1.7-1.7 1.7 1.7-1.7 1.7zm-4.1 0l-1.7-1.7 1.7-1.7 1.7 1.7-1.7 1.7zm-4.1 0l-1.7-1.7 1.7-1.7 1.7 1.7-1.7 1.7zm-4.1 0l-1.7-1.7 1.7-1.7 1.7 1.7-1.7 1.7zm-4.1 0l-1.7-1.7 1.7-1.7 1.7 1.7-1.7 1.7zm-4 0l-1.7-1.7 1.7-1.7 1.7 1.7-1.7 1.7zm34.6 2.1l-1.7-1.7 1.7-1.7 1.7 1.7-1.7 1.7zm-12.2 0l-1.7-1.7 1.7-1.7 1.7 1.7-1.7 1.7zm-4.1 0l-1.7-1.7 1.7-1.7 1.7 1.7-1.7 1.7zm-4.1 0l-1.7-1.7 1.7-1.7 1.7 1.7-1.7 1.7zm-4 0l-1.7-1.7 1.7-1.7 1.7 1.7-1.7 1.7zm-4.1 0l-1.7-1.7 1.7-1.7 1.7 1.7-1.7 1.7zm-4.1 0l-1.7-1.7 1.7-1.7 1.7 1.7-1.7 1.7zm-4.1 0l-1.7-1.7 1.7-1.7 1.7 1.7-1.7 1.7zm32.7 0l-1.7-1.7 1.7-1.7 1.7 1.7-1.7 1.7zm-4.1 0l-1.7-1.7 1.7-1.7 1.7 1.7-1.7 1.7z"/></svg>