<?xml version="1.0" encoding="utf-8"?>
<!-- Generator: Adobe Illustrator 18.1.1, SVG Export Plug-In . SVG Version: 6.00 Build 0)  -->
<svg version="1.1" id="Layer_1" xmlns="http://www.w3.org/2000/svg" xmlns:xlink="http://www.w3.org/1999/xlink" x="0px" y="0px"
	 viewBox="-313.5 474.5 49 48" enable-background="new -313.5 474.5 49 48" xml:space="preserve">
<path fill="none" d="M-515.9,34.7l-1.9-1.5l0.7-0.3c0.6-0.3,0.9-0.8,0.9-1.3c0-0.5-0.3-1-0.8-1.3l-36.3-23.5
	c-0.7-0.4-1.7-0.7-2.8-0.7c-0.5,0-1,0.1-1.3,0.2l-4.5,1.5c-0.6,0.2-1,0.6-1.2,1.1c-0.1,0.3,0,0.6,0.1,0.9c-0.5,0.2-0.8,0.6-0.9,1
	c0,0.1,0,0.1,0,0.2c0,0,0,0.1,0,0.1v3.5l-0.1-0.1l0.1,1.5v0.5c0,0.1,0,0.1,0.1,0.2l2.6,35.2c0.1,0.7,0.4,1.3,0.9,1.8
	c0.5,0.4,1,0.6,1.6,0.6c0.1,0,0.2,0,0.3,0l13.6-1.5c0.7-0.1,1.3-0.4,1.7-1c0.4-0.5,0.4-1.2,0.2-1.9l-1.8-5.6l5.2,7.5
	c0.6,0.9,1.6,1.4,2.7,1.4c0.4,0,0.8-0.1,1.1-0.2l13.2-5.2c1.3-0.5,2.3-2,2.3-3.4v-4.3l4.1-2.1c0.7-0.3,1.1-0.8,1.1-1.4
	C-515,35.7-515.3,35.1-515.9,34.7z M-562.6,8.8c0.1-0.3,0.4-0.6,0.9-0.8l4.5-1.5c0.3-0.1,0.8-0.2,1.2-0.2c0.9,0,1.9,0.3,2.5,0.7
	l11.5,7.4l-8.8,6.2l-11.3-10.9c-0.1-0.1-0.2-0.2-0.3-0.3l0-0.1c0,0,0,0,0,0C-562.6,9.3-562.7,9-562.6,8.8z M-562.8,17.9l3.4,4.9h-3
	L-562.8,17.9z M-562.1,27.9h6.2l3.9,5.6h-9.7L-562.1,27.9z M-561.3,39.3l12.5-1.1l2.2,3.2l0.6,1.8l-14.9,1.6L-561.3,39.3z
	 M-544.4,47.9l0.6,2c0.1,0.4,0.1,0.8-0.1,1.2c-0.2,0.3-0.6,0.5-1,0.6l-13.6,1.5c-0.5,0-0.9-0.1-1.3-0.4c-0.4-0.3-0.6-0.7-0.6-1.2
	l-0.2-2.1L-544.4,47.9z M-522.9,46.6l-13.2,5.2c-0.9,0.4-2.2,0-2.7-0.8l-16.7-24l17,22.4c0.9,1.1,2.5,1.6,3.8,1l13.5-6
	C-521.3,45.3-522,46.2-522.9,46.6z M-521.1,43.4l-13.9,6.2c-0.9,0.4-2.2,0.1-2.8-0.7L-563,15.6v-0.4l25.7,31.4
	c0.6,0.7,1.6,1.2,2.6,1.2c0.5,0,0.9-0.1,1.3-0.3l12.3-5.8V43.4z M-521.1,40.7l-12.7,6c-0.9,0.4-2.2,0.1-2.8-0.6L-563,13.8v-1.2l2,2
	l23.4,28.5c0.9,1.1,2.6,1.4,3.8,0.6l1.3-0.8c0,0,0,0,0,0l0.2,0.2c0.6,0.6,1.6,1,2.5,1c0.5,0,1-0.1,1.5-0.3l7.2-3.6V40.7L-521.1,40.7
	z M-554.9,20.7l21.8,21.6l-1.2,0.7c-0.8,0.5-2,0.3-2.7-0.5L-554.9,20.7z M-516.5,36.9l-12.2,6.1c-0.9,0.5-2.3,0.2-3-0.5L-560.4,14
	l-2.6-3.2c0.1-0.2,0.3-0.4,0.6-0.5l29.5,28.4c0.6,0.5,1.4,0.9,2.3,0.9c0.5,0,1-0.1,1.5-0.3l10.5-5.6l2.2,1.8
	c0.3,0.2,0.5,0.5,0.5,0.8C-515.9,36.4-516.1,36.7-516.5,36.9z"/>
<path fill="none" d="M-557.1,10.2c1.2,0,2.2-0.6,2.2-1.4s-1-1.4-2.2-1.4c-1.2,0-2.2,0.6-2.2,1.4C-559.3,9.6-558.4,10.2-557.1,10.2z
	 M-557.1,7.8c1,0,1.8,0.4,1.8,1s-0.8,1-1.8,1c-0.9,0-1.8-0.4-1.8-1C-558.9,8.2-558.1,7.8-557.1,7.8z"/>
<g>
	<g>
		<path fill="#F04B23" d="M-291.2,484l24.1,15.6c0.2,0.2,0.4,0.3,0.4,0.5c0,0.1-0.2,0.3-0.4,0.4l-0.7,0.3l-0.3,0.1h0l-0.6,0.3
			l-0.4,0.2l-0.1,0.1l0,0l-10,5.4c-0.3,0.1-0.6,0.2-1,0.2c-0.6,0-1.2-0.2-1.6-0.6l-17.5-16.9L-291.2,484 M-307.5,492.3l2.4,3.2h-0.2
			h-6.2l-0.2-3.2h2.8H-307.5 M-301,503l1.9,2.8l-11.7,1l-0.3-3.8h9.5L-301,503 M-295.2,512.7L-295.2,512.7l0.9,2.7L-310,517
			l-0.2-2.7L-295.2,512.7L-295.2,512.7 M-305.6,474.5c-0.5,0-1,0.1-1.3,0.2l-4.5,1.5c-0.6,0.2-1,0.6-1.2,1.1c-0.1,0.3,0,0.6,0.1,0.9
			c-0.5,0.2-0.8,0.6-0.9,1c0,0.1,0,0.1,0,0.2c0,0,0,0.1,0,0.1v3.5l-0.1-0.1l0.1,1.5v0.5c0,0.1,0,0.1,0.1,0.2l2.6,35.2
			c0.1,0.7,0.4,1.3,0.9,1.8c0.5,0.4,1,0.6,1.6,0.6c0.1,0,0.2,0,0.3,0l13.6-1.5c0.7-0.1,1.3-0.4,1.7-1c0.4-0.6,0.4-1.2,0.2-1.9
			l-1.8-5.6l5.2,7.5c0.6,0.9,1.6,1.4,2.7,1.4c0.4,0,0.8-0.1,1.1-0.2l13.2-5.2c1.3-0.5,2.3-2,2.3-3.4v-4.3l4.1-2.1
			c0.7-0.3,1.1-0.8,1.1-1.4c0-0.6-0.3-1.1-0.9-1.5l-1.9-1.5l0.7-0.3c0.6-0.3,0.9-0.8,0.9-1.3c0-0.5-0.3-1-0.8-1.3l-36.3-23.5
			C-303.5,474.8-304.6,474.5-305.6,474.5L-305.6,474.5z M-312,478c-0.1-0.2-0.2-0.4-0.1-0.6c0.1-0.3,0.4-0.6,0.9-0.8l4.5-1.5
			c0.3-0.1,0.8-0.2,1.2-0.2c0.9,0,1.9,0.3,2.5,0.7l11.5,7.4l-8.8,6.2l-11.3-10.9C-311.8,478.3-311.9,478.2-312,478L-312,478
			C-312,478-312,478-312,478L-312,478z M-279.3,511.7c-0.7,0-1.4-0.3-1.9-0.7l-28.7-28.5l-2.6-3.2c0.1-0.2,0.3-0.4,0.6-0.5
			l29.5,28.4c0.6,0.5,1.4,0.9,2.3,0.9c0.5,0,1-0.1,1.5-0.3l10.5-5.6l2.2,1.8c0.3,0.2,0.5,0.5,0.5,0.8c0,0.3-0.2,0.5-0.6,0.7
			l-12.2,6.1C-278.5,511.7-278.9,511.7-279.3,511.7L-279.3,511.7z M-284.2,515.4c-0.7,0-1.5-0.3-1.9-0.8l-26.4-32.2v-1.2l2,2
			l23.4,28.5c0.6,0.7,1.4,1.1,2.3,1.1c0.5,0,1-0.1,1.5-0.4l1.3-0.8c0,0,0,0,0,0l0.2,0.2c0.6,0.6,1.6,1,2.5,1c0.5,0,1-0.1,1.5-0.3
			l7.2-3.6v0.5l-12.7,6C-283.6,515.3-283.9,515.4-284.2,515.4L-284.2,515.4z M-285.4,518.2c-0.7,0-1.5-0.3-1.9-0.9l-25.2-33.3v-0.4
			l25.7,31.4c0.6,0.7,1.6,1.2,2.6,1.2c0.5,0,0.9-0.1,1.3-0.3l12.3-5.8v1.7l-13.9,6.2C-284.8,518.2-285.1,518.2-285.4,518.2
			L-285.4,518.2z M-312,491.3l-0.4-4.9l3.4,4.9H-312L-312,491.3z M-284.8,511.8c-0.6,0-1.2-0.3-1.6-0.7l-17.9-21.9l21.8,21.6
			l-1.2,0.7C-284.1,511.7-284.4,511.8-284.8,511.8L-284.8,511.8z M-286.4,520.4c-0.8,0-1.6-0.4-2-1l-16.7-24l17,22.4
			c0.6,0.8,1.6,1.2,2.6,1.2c0.4,0,0.8-0.1,1.2-0.3l13.5-6c-0.2,0.9-0.9,1.9-1.7,2.2l-13.2,5.2C-285.8,520.4-286.1,520.4-286.4,520.4
			L-286.4,520.4z M-311.2,502l-0.4-5.6h6.2l3.9,5.6H-311.2L-311.2,502z M-310.4,513.3l-0.4-5.5l12.5-1.1l2.2,3.2l0.6,1.8
			L-310.4,513.3L-310.4,513.3z M-308.2,521.6c-0.4,0-0.8-0.1-1.1-0.4c-0.3-0.3-0.6-0.7-0.6-1.2l-0.2-2.1l16.1-1.6l0.6,2
			c0.1,0.4,0.1,0.8-0.1,1.2c-0.2,0.3-0.6,0.5-1,0.6l-13.6,1.5C-308.1,521.6-308.1,521.6-308.2,521.6L-308.2,521.6z"/>
	</g>
	<g>
		<path fill="#F04B23" d="M-306.6,475.9c-1.2,0-2.2,0.6-2.2,1.4c0,0.8,1,1.4,2.2,1.4s2.2-0.6,2.2-1.4
			C-304.4,476.5-305.4,475.9-306.6,475.9L-306.6,475.9z M-306.6,478.2c-0.9,0-1.8-0.4-1.8-1c0-0.5,0.8-1,1.8-1s1.8,0.4,1.8,1
			C-304.9,477.8-305.7,478.2-306.6,478.2L-306.6,478.2z"/>
	</g>
</g>
</svg>
