<svg xmlns="http://www.w3.org/2000/svg" preserveAspectRatio="xMidYMid" width="53" height="53" viewBox="0 0 53 53"><defs><style>.cls-2 { fill: #000000; stroke: #ff4700; stroke-linejoin: round; stroke-width: 1px; opacity: 0.8; fill-opacity: 0; }</style></defs><path d="M48.063 27.92h-6.216c-.81 0-1.437-.652-1.437-1.459s.627-1.436 1.437-1.436h6.216c.81 0 1.437.629 1.437 1.436 0 .807-.627 1.459-1.437 1.459zm-9.69-11.217c-.546.551-1.489.546-2.038 0-.601-.601-.56-1.469 0-2.037l4.388-4.436c.597-.602 1.494-.579 2.037 0 .581.623.561 1.469 0 2.037l-4.387 4.436zm-3.997 17.662c-2.168 2.166-4.807 3.262-7.889 3.262-3.083 0-5.733-1.08-7.915-3.262-2.181-2.176-3.265-4.826-3.265-7.904 0-3.078 1.097-5.716 3.265-7.882 2.194-2.187 4.832-3.284 7.915-3.284 3.082 0 5.708 1.108 7.889 3.284 2.181 2.182 3.291 4.804 3.291 7.882 0 3.078-1.097 5.717-3.291 7.904zm-2.012-13.748c-1.619-1.62-3.578-2.428-5.877-2.428-2.272 0-4.232.808-5.851 2.428-1.619 1.619-2.43 3.573-2.43 5.844 0 2.294.811 4.253 2.43 5.872 1.619 1.615 3.579 2.428 5.851 2.428 2.299 0 4.258-.813 5.877-2.428 1.62-1.619 2.43-3.578 2.43-5.872 0-2.271-.81-4.225-2.43-5.844zm-5.877-7.983c-.81 0-1.436-.629-1.436-1.436v-6.262c0-.807.626-1.436 1.436-1.436.81 0 1.463.629 1.463 1.436v6.262c0 .807-.653 1.436-1.463 1.436zm-10.788 4.487c-.392 0-.732-.134-1.019-.418l-4.44-4.436c-.563-.562-.601-1.436 0-2.037.522-.518 1.515-.518 2.037 0l4.441 4.436c.522.523.522 1.436 0 2.037-.34.284-.68.418-1.019.418zm-3.056 9.34c0 .807-.627 1.459-1.437 1.459h-6.269c-.81 0-1.437-.652-1.437-1.459s.627-1.436 1.437-1.436h6.269c.81 0 1.437.629 1.437 1.436zm1.985 9.836c.601-.601 1.489-.601 2.09 0 .522.523.563 1.475 0 2.037l-4.441 4.436c-.548.546-1.489.546-2.037 0-.601-.601-.601-1.491 0-2.087l4.388-4.386zm11.859 4.069c.81 0 1.463.629 1.463 1.436v6.212c0 .807-.653 1.486-1.463 1.486s-1.436-.679-1.436-1.436v-6.262c0-.807.626-1.436 1.436-1.436zm11.886-4.069l4.387 4.386c.601.596.602 1.514 0 2.032-.443.551-1.593.551-2.037 0l-4.388-4.381c-.563-.562-.601-1.514 0-2.037.522-.601 1.436-.601 2.038 0z" id="path-1" class="cls-2" fill-rule="evenodd"/></svg>