<svg xmlns="http://www.w3.org/2000/svg" xmlns:xlink="http://www.w3.org/1999/xlink" preserveAspectRatio="xMidYMid" width="55" height="56" viewBox="0 0 55 56">
  <defs>
    <style>

      .cls-2 {
        fill: #000000;
        stroke: #ff4700;
        stroke-linejoin: round;
        stroke-width: 1px;
        fill-opacity: 0;
      }
    </style>
  </defs>
  <path d="M46.080,52.500 C46.080,52.500 8.920,52.500 8.920,52.500 C8.492,52.500 8.145,52.147 8.145,51.712 C8.145,51.712 8.145,27.709 8.145,27.709 C8.145,27.709 4.275,27.709 4.275,27.709 C3.958,27.709 3.674,27.513 3.556,27.215 C3.438,26.916 3.511,26.575 3.738,26.352 C3.738,26.352 26.964,3.687 26.964,3.687 C27.264,3.395 27.736,3.395 28.036,3.687 C28.036,3.687 51.261,26.352 51.261,26.352 C51.489,26.575 51.562,26.916 51.444,27.215 C51.326,27.513 51.041,27.709 50.725,27.709 C50.725,27.709 46.854,27.709 46.854,27.709 C46.854,27.709 46.854,51.712 46.854,51.712 C46.855,52.147 46.508,52.500 46.080,52.500 ZM37.977,50.924 C37.977,50.924 45.306,50.924 45.306,50.924 C45.306,50.924 45.306,26.921 45.306,26.921 C45.306,26.486 45.653,26.133 46.080,26.133 C46.080,26.133 48.800,26.133 48.800,26.133 C48.800,26.133 27.500,5.347 27.500,5.347 C27.500,5.347 6.201,26.133 6.201,26.133 C6.201,26.133 8.920,26.133 8.920,26.133 C9.348,26.133 9.694,26.486 9.694,26.921 C9.694,26.921 9.694,50.924 9.694,50.924 C9.694,50.924 17.023,50.924 17.023,50.924 C17.023,50.924 17.023,33.354 17.023,33.354 C17.023,32.919 17.369,32.566 17.797,32.566 C17.797,32.566 37.203,32.566 37.203,32.566 C37.631,32.566 37.977,32.919 37.977,33.354 C37.977,33.354 37.977,50.924 37.977,50.924 C37.977,50.924 37.977,50.924 37.977,50.924 ZM18.571,50.924 C18.571,50.924 36.429,50.924 36.429,50.924 C36.429,50.924 36.429,49.448 36.429,49.448 C36.429,49.448 18.571,49.448 18.571,49.448 C18.571,49.448 18.571,50.924 18.571,50.924 ZM18.571,47.872 C18.571,47.872 36.429,47.872 36.429,47.872 C36.429,47.872 36.429,46.396 36.429,46.396 C36.429,46.396 18.571,46.396 18.571,46.396 C18.571,46.396 18.571,47.872 18.571,47.872 ZM18.571,44.821 C18.571,44.821 36.429,44.821 36.429,44.821 C36.429,44.821 36.429,43.344 36.429,43.344 C36.429,43.344 18.571,43.344 18.571,43.344 C18.571,43.344 18.571,44.821 18.571,44.821 ZM18.571,41.769 C18.571,41.769 36.429,41.769 36.429,41.769 C36.429,41.769 36.429,40.293 36.429,40.293 C36.429,40.293 18.571,40.293 18.571,40.293 C18.571,40.293 18.571,41.769 18.571,41.769 ZM18.571,38.717 C18.571,38.717 36.429,38.717 36.429,38.717 C36.429,38.717 36.429,37.241 36.429,37.241 C36.429,37.241 18.571,37.241 18.571,37.241 C18.571,37.241 18.571,38.717 18.571,38.717 ZM18.571,35.665 C18.571,35.665 36.429,35.665 36.429,35.665 C36.429,35.665 36.429,34.142 36.429,34.142 C36.429,34.142 18.571,34.142 18.571,34.142 C18.571,34.142 18.571,35.665 18.571,35.665 ZM35.186,22.219 C35.186,22.219 19.814,22.219 19.814,22.219 C19.498,22.219 19.214,22.023 19.096,21.724 C18.978,21.426 19.051,21.084 19.279,20.862 C19.279,20.862 26.965,13.377 26.965,13.377 C27.264,13.086 27.736,13.086 28.035,13.377 C28.035,13.377 35.721,20.862 35.721,20.862 C35.949,21.084 36.022,21.426 35.904,21.724 C35.786,22.023 35.502,22.219 35.186,22.219 ZM21.743,20.643 C21.743,20.643 33.257,20.643 33.257,20.643 C33.257,20.643 27.500,15.037 27.500,15.037 C27.500,15.037 21.743,20.643 21.743,20.643 Z" id="path-1" class="cls-2" fill-rule="evenodd"/>
</svg>
