<svg xmlns="http://www.w3.org/2000/svg" preserveAspectRatio="xMidYMid" width="56" height="50" viewBox="0 0 56 50"><defs><style>.cls-2 { fill: #000000; stroke: #ff4700; stroke-linejoin: round; stroke-width: 1px; fill-opacity: 0; }</style></defs><path d="M53.678 36.311c-1.173 1.183-2.732 1.834-4.39 1.834-1.66 0-3.222-.652-4.395-1.834l-1.979-1.911-2.006 1.937c-1.146 1.157-2.708 1.808-4.366 1.808-1.661 0-3.222-.652-4.392-1.834-1.175-1.18-1.821-2.753-1.821-4.422 0-1.673.647-3.242 1.822-4.423 1.171-1.181 2.731-1.835 4.391-1.835 1.66 0 3.221.651 4.394 1.835l1.977 1.91 2.007-1.94c1.149-1.154 2.708-1.805 4.368-1.805 1.657 0 3.216.651 4.39 1.832 1.177 1.182 1.822 2.751 1.822 4.424 0 1.673-.648 3.246-1.822 4.424zm-15.259-6.262c-.522-.523-1.179-.797-1.877-.797s-1.355.274-1.846.772c-.498.501-.77 1.16-.77 1.864 0 .701.272 1.363.767 1.861.989.996 2.71.996 3.698 0l1.927-1.86-1.899-1.84zm12.717-.029c-.989-.995-2.711-.995-3.699.003l-1.927 1.861 1.9 1.84c1.041 1.046 2.737 1.022 3.726.025.495-.498.767-1.162.766-1.865 0-.704-.271-1.364-.766-1.864zm-26.496-21.017c.856 0 1.551.699 1.551 1.562v15.353l-10.487 8.61c-.287.236-.634.351-.979.351-.45 0-.897-.196-1.203-.574-.541-.669-.442-1.653.222-2.198l9.345-7.673v-13.869c0-.863.693-1.562 1.551-1.562zm21.94 11.325c-.276.683-1.007.918-1.625.522l-5.509-3.536c-.617-.397-.551-.904.146-1.128l2.538-.815c-2.31-4.562-6.188-8.017-10.992-9.77-5.022-1.829-10.45-1.58-15.286.701-4.835 2.281-8.498 6.322-10.315 11.379-1.291 3.59-1.54 7.388-.765 11.031.316 1.488.803 2.948 1.46 4.36 2.266 4.869 6.279 8.559 11.299 10.388 5.022 1.83 10.454 1.591 15.285-.7 1.952-.926 3.965-2.051 4.981-.554 1.004 1.479-.019 2.083-.99 2.762-.732.512-1.548.9-2.365 1.285-5.762 2.719-12.231 3.016-18.215.835-5.983-2.18-10.764-6.577-13.464-12.379-.783-1.682-1.363-3.423-1.74-5.195-.924-4.342-.627-8.867.91-13.146 2.166-6.025 6.532-10.841 12.294-13.559 5.762-2.719 12.231-3.015 18.214-.835 5.926 2.159 10.671 6.492 13.385 12.21l2.447-.785c.697-.224 1.043.151.767.835l-2.46 6.094z" id="path-1" class="cls-2" fill-rule="evenodd"/></svg>