<svg xmlns="http://www.w3.org/2000/svg" preserveAspectRatio="xMidYMid" width="42" height="48" viewBox="0 0 42 48"><defs><style>.cls-2 { fill: #000000; stroke: #ff4700; stroke-linejoin: round; stroke-width: 1px; fill-opacity: 0; }</style></defs><path d="M39.99 31.938l-2.313.003c-.409.001-.8.169-1.084.466-.696.731-1.628 1.135-2.624 1.137-2.016.002-3.66-1.658-3.663-3.702 0-2.044 1.637-3.706 3.65-3.71.997-.002 1.93.398 2.629 1.125.285.296.675.463 1.083.462l2.312-.002c.401-.001.785-.163 1.067-.45.282-.287.441-.675.441-1.08v-.002l-.019-12.236c0-.406-.16-.795-.443-1.081-.284-.286-.668-.447-1.068-.446l-13.249.021h-2.786l-.002-1.443v-.005c0-.581.233-1.138.646-1.544 1.005-.987 1.558-2.306 1.558-3.714v-.03c-.004-2.865-2.3-5.194-5.125-5.207-2.825.013-5.121 2.342-5.125 5.207v.03c0 1.408.553 2.727 1.558 3.714.413.406.646.963.646 1.544v.005l-.002 1.443h-2.786l-13.249-.021c-.4-.001-.784.16-1.068.446-.283.286-.443.675-.443 1.081l-.019 12.236v.002c0 .405.159.793.441 1.08.282.287.666.449 1.067.45l2.312.002c.408.002.799-.166 1.083-.462.698-.727 1.632-1.127 2.629-1.125 2.013.004 3.65 1.666 3.65 3.71-.003 2.044-1.647 3.703-3.663 3.702-.996-.002-1.928-.406-2.624-1.137-.284-.297-.675-.465-1.084-.466l-2.313-.003c-.833-.001-1.509.682-1.51 1.526l.015 12.494v.003c0 .843.674 1.527 1.507 1.528l15.388.011c.401.001.785-.16 1.069-.446.283-.286.443-.675.443-1.08l.003-1.297v-.003c0-.413-.166-.809-.459-1.097-.714-.701-1.107-1.639-1.107-2.639v-.021c.003-2.035 1.634-3.69 3.641-3.699 2.007.009 3.638 1.664 3.641 3.699v.021c0 1-.393 1.938-1.107 2.639-.293.288-.459.684-.459 1.097v.003l.002 1.297c.001.405.16.794.444 1.08.283.286.667.446 1.068.446l15.389-.011c.832-.001 1.506-.685 1.506-1.528v-.003l.016-12.494c-.001-.844-.677-1.527-1.51-1.526z" id="path-1" class="cls-2" fill-rule="evenodd"/></svg>