<svg xmlns="http://www.w3.org/2000/svg" preserveAspectRatio="xMidYMid" width="46" height="52" viewBox="0 0 46 52"><defs><style>.cls-2 { fill: #000000; stroke: #ff4700; stroke-linejoin: round; stroke-width: 1px; opacity: 0.8; fill-opacity: 0; }</style></defs><path d="M41.826 35.363l-4.819-2.808 4.068-2.442c.654-.318.856-1.204.484-1.855-.378-.667-1.195-.807-1.816-.442l-5.423 3.203-8.62-5.058 8.62-5.006 5.423 3.198c.17.126.388.198.63.198.46 0 .871-.218 1.186-.635.364-.662.17-1.537-.484-1.854l-4.068-2.443 4.819-2.808c.628-.365.844-1.182.484-1.854-.343-.646-1.193-.87-1.84-.49l-4.843 2.834-.072-4.886c-.012-.756-.581-1.365-1.332-1.365-.75 0-1.337.656-1.331 1.365l.048 6.448-8.571 5.006v-10.157l5.399-3.105c.63-.359.905-1.198.533-1.854-.378-.667-1.155-.865-1.816-.49l-4.116 2.344v-5.542c0-.756-.606-1.365-1.356-1.365-.751 0-1.332.609-1.332 1.365v5.594l-4.261-2.396c-.664-.37-1.419-.161-1.792.49-.378.667-.143 1.484.508 1.854l5.545 3.151v10.059l-8.765-5.099.049-6.303c.073-.709-.557-1.365-1.307-1.365h-.049c-.702 0-1.324.609-1.332 1.365l-.048 4.74-4.721-2.735c-.659-.385-1.473-.156-1.816.484-.36.678-.174 1.474.484 1.86l4.77 2.782-4.165 2.516c-.654.317-.858 1.203-.46 1.854.256.422.629.635 1.138.635.266 0 .488-.067.702-.198l5.448-3.245 8.741 5.053-8.741 5.105-5.448-3.25c-.654-.386-1.497-.204-1.84.442-.359.672-.164 1.48.46 1.855l4.165 2.489-4.77 2.808c-.656.385-.869 1.198-.484 1.86.269.458.629.682 1.137.682.121 0 .364-.073.679-.198l4.721-2.735.048 4.74c.008.756.63 1.339 1.332 1.339h.049c.75 0 1.312-.63 1.307-1.391l-.049-6.297 8.765-5.053v10.006l-5.545 3.152c-.661.375-.893 1.193-.508 1.854.269.464.63.688 1.138.688.242 0 .465-.042.654-.151l4.261-2.438v5.688c0 .756.581 1.344 1.332 1.344.75 0 1.356-.588 1.356-1.344v-5.594l4.116 2.344c.188.109.411.151.629.151.533 0 .925-.219 1.187-.688.367-.656.13-1.479-.533-1.854l-5.399-3.053v-10.157l8.571 5.006-.048 6.396c-.007.761.581 1.391 1.331 1.391.751 0 1.32-.583 1.332-1.339l.072-4.912 4.843 2.86c.187.11.436.146.702.146.508 0 .881-.214 1.138-.636.397-.65.144-1.489-.484-1.854z" id="path-1" class="cls-2" fill-rule="evenodd"/></svg>