<svg xmlns="http://www.w3.org/2000/svg" preserveAspectRatio="xMidYMid" width="49" height="55" viewBox="0 0 49 55"><defs><style>.cls-2 { fill: #000000; stroke: #ff4700; stroke-linejoin: round; stroke-width: 1px; fill-opacity: 0; }</style></defs><path d="M44.768 51.5h-40.536c-.404 0-.732-.325-.732-.727v-3.203c0-.406.328-.687.732-.687h2.84v-42.648c0-.406.327-.735.732-.735h33.391c.405 0 .733.329.733.735v42.648h2.839c.405 0 .733.326.733.728v3.162c0 .402-.328.727-.732.727zm-36.232-4.617h31.927v-41.914h-31.927v41.914zm29.73-1.554h-12.302c-.404 0-.732-.329-.732-.735v-37.617c0-.405.328-.734.732-.734h12.302c.405 0 .732.329.732.734v37.617c.001.406-.327.735-.732.735zm-11.57-1.47h10.838v-4.5c-.737-.884-3.353-4.35-5.47-11.301-2.123-6.974-3.111-17.549-3.344-20.346h-2.024v36.147zm3.495-36.147c.251 2.919 1.249 13.268 3.274 19.916 1.383 4.54 2.984 7.529 4.069 9.22v-29.136h-7.343zm-7.156 37.617h-12.302c-.404 0-.732-.329-.732-.735v-37.617c0-.405.328-.734.732-.734h12.302c.405 0 .732.329.732.734v37.617c0 .406-.327.735-.732.735zm-11.57-1.47h10.838v-36.147h-2.023c-.233 2.797-1.221 13.372-3.345 20.345-2.117 6.952-4.732 10.418-5.47 11.302v4.5zm2.097-36.147h-2.097v29.129c1.088-1.699 2.693-4.693 4.07-9.213 2.024-6.648 3.022-16.997 3.274-19.916h-3.777" id="path-1" class="cls-2" fill-rule="evenodd"/></svg>