<svg xmlns="http://www.w3.org/2000/svg" viewBox="-313.5 474.5 49 48" enable-background="new -313.5 474.5 49 48"><path d="M-515.9 34.7l-1.9-1.5.7-.3c.6-.3.9-.8.9-1.3s-.3-1-.8-1.3l-36.3-23.5c-.7-.4-1.7-.7-2.8-.7-.5 0-1 .1-1.3.2l-4.5 1.5c-.6.2-1 .6-1.2 1.1-.1.3 0 .6.1.9-.5.2-.8.6-.9 1v3.8l-.1-.1.1 1.5v.5c0 .1 0 .1.1.2l2.6 35.2c.1.7.4 1.3.9 1.8.5.4 1 .6 1.6.6h.3l13.6-1.5c.7-.1 1.3-.4 1.7-1 .4-.5.4-1.2.2-1.9l-1.8-5.6 5.2 7.5c.6.9 1.6 1.4 2.7 1.4.4 0 .8-.1 1.1-.2l13.2-5.2c1.3-.5 2.3-2 2.3-3.4v-4.3l4.1-2.1c.7-.3 1.1-.8 1.1-1.4 0-.9-.3-1.5-.9-1.9zm-46.7-25.9c.1-.3.4-.6.9-.8l4.5-1.5c.3-.1.8-.2 1.2-.2.9 0 1.9.3 2.5.7l11.5 7.4-8.8 6.2-11.3-10.9-.3-.3v-.1c-.2 0-.3-.3-.2-.5zm-.2 9.1l3.4 4.9h-3l-.4-4.9zm.7 10h6.2l3.9 5.6h-9.7l-.4-5.6zm.8 11.4l12.5-1.1 2.2 3.2.6 1.8-14.9 1.6-.4-5.5zm16.9 8.6l.6 2c.1.4.1.8-.1 1.2-.2.3-.6.5-1 .6l-13.6 1.5c-.5 0-.9-.1-1.3-.4-.4-.3-.6-.7-.6-1.2l-.2-2.1 16.2-1.6zm21.5-1.3l-13.2 5.2c-.9.4-2.2 0-2.7-.8l-16.7-24 17 22.4c.9 1.1 2.5 1.6 3.8 1l13.5-6c-.1.9-.8 1.8-1.7 2.2zm1.8-3.2l-13.9 6.2c-.9.4-2.2.1-2.8-.7l-25.2-33.3v-.4l25.7 31.4c.6.7 1.6 1.2 2.6 1.2.5 0 .9-.1 1.3-.3l12.3-5.8v1.7zm0-2.7l-12.7 6c-.9.4-2.2.1-2.8-.6l-26.4-32.3v-1.2l2 2 23.4 28.5c.9 1.1 2.6 1.4 3.8.6l1.3-.8.2.2c.6.6 1.6 1 2.5 1 .5 0 1-.1 1.5-.3l7.2-3.6v.5zm-33.8-20l21.8 21.6-1.2.7c-.8.5-2 .3-2.7-.5l-17.9-21.8zm38.4 16.2l-12.2 6.1c-.9.5-2.3.2-3-.5l-28.7-28.5-2.6-3.2c.1-.2.3-.4.6-.5l29.5 28.4c.6.5 1.4.9 2.3.9.5 0 1-.1 1.5-.3l10.5-5.6 2.2 1.8c.3.2.5.5.5.8 0 .1-.2.4-.6.6zM-557.1 10.2c1.2 0 2.2-.6 2.2-1.4s-1-1.4-2.2-1.4c-1.2 0-2.2.6-2.2 1.4 0 .8.9 1.4 2.2 1.4zm0-2.4c1 0 1.8.4 1.8 1s-.8 1-1.8 1c-.9 0-1.8-.4-1.8-1s.8-1 1.8-1z" fill="none"/><path fill="#F04B23" d="M-291.2 484l24.1 15.6c.2.2.4.3.4.5 0 .1-.2.3-.4.4l-.7.3-.3.1-.6.3-.4.2-.1.1-10 5.4c-.3.1-.6.2-1 .2-.6 0-1.2-.2-1.6-.6l-17.5-16.9 8.1-5.6m-16.3 8.3l2.4 3.2h-6.4l-.2-3.2h4.199999999999999m6.5 10.7l1.9 2.8-11.7 1-.3-3.8h10.1m5.8 9.7l.9 2.7-15.7 1.6-.2-2.7 15-1.6m-10.4-38.2c-.5 0-1 .1-1.3.2l-4.5 1.5c-.6.2-1 .6-1.2 1.1-.1.3 0 .6.1.9-.5.2-.8.6-.9 1v3.8l-.1-.1.1 1.5v.5c0 .1 0 .1.1.2l2.6 35.2c.1.7.4 1.3.9 1.8.5.4 1 .6 1.6.6h.3l13.6-1.5c.7-.1 1.3-.4 1.7-1 .4-.6.4-1.2.2-1.9l-1.8-5.6 5.2 7.5c.6.9 1.6 1.4 2.7 1.4.4 0 .8-.1 1.1-.2l13.2-5.2c1.3-.5 2.3-2 2.3-3.4v-4.3l4.1-2.1c.7-.3 1.1-.8 1.1-1.4 0-.6-.3-1.1-.9-1.5l-1.9-1.5.7-.3c.6-.3.9-.8.9-1.3s-.3-1-.8-1.3l-36.3-23.5c-.7-.8-1.8-1.1-2.8-1.1zm-6.4 3.5c-.1-.2-.2-.4-.1-.6.1-.3.4-.6.9-.8l4.5-1.5c.3-.1.8-.2 1.2-.2.9 0 1.9.3 2.5.7l11.5 7.4-8.8 6.2-11.3-10.9c-.2 0-.3-.1-.4-.3zm32.7 33.7c-.7 0-1.4-.3-1.9-.7l-28.7-28.5-2.6-3.2c.1-.2.3-.4.6-.5l29.5 28.4c.6.5 1.4.9 2.3.9.5 0 1-.1 1.5-.3l10.5-5.6 2.2 1.8c.3.2.5.5.5.8 0 .3-.2.5-.6.7l-12.2 6.1c-.3.1-.7.1-1.1.1zm-4.9 3.7c-.7 0-1.5-.3-1.9-.8l-26.4-32.2v-1.2l2 2 23.4 28.5c.6.7 1.4 1.1 2.3 1.1.5 0 1-.1 1.5-.4l1.3-.8.2.2c.6.6 1.6 1 2.5 1 .5 0 1-.1 1.5-.3l7.2-3.6v.5l-12.7 6c-.3-.1-.6 0-.9 0zm-1.2 2.8c-.7 0-1.5-.3-1.9-.9l-25.2-33.3v-.4l25.7 31.4c.6.7 1.6 1.2 2.6 1.2.5 0 .9-.1 1.3-.3l12.3-5.8v1.7l-13.9 6.2c-.3.2-.6.2-.9.2zm-26.6-26.9l-.4-4.9 3.4 4.9h-3zm27.2 20.5c-.6 0-1.2-.3-1.6-.7l-17.9-21.9 21.8 21.6-1.2.7c-.4.2-.7.3-1.1.3zm-1.6 8.6c-.8 0-1.6-.4-2-1l-16.7-24 17 22.4c.6.8 1.6 1.2 2.6 1.2.4 0 .8-.1 1.2-.3l13.5-6c-.2.9-.9 1.9-1.7 2.2l-13.2 5.2c-.1.3-.4.3-.7.3zm-24.8-18.4l-.4-5.6h6.2l3.9 5.6h-9.7zm.8 11.3l-.4-5.5 12.5-1.1 2.2 3.2.6 1.8-14.9 1.6zm2.2 8.3c-.4 0-.8-.1-1.1-.4-.3-.3-.6-.7-.6-1.2l-.2-2.1 16.1-1.6.6 2c.1.4.1.8-.1 1.2-.2.3-.6.5-1 .6l-13.6 1.5h-.1zM-306.6 475.9c-1.2 0-2.2.6-2.2 1.4 0 .8 1 1.4 2.2 1.4s2.2-.6 2.2-1.4c0-.8-1-1.4-2.2-1.4zm0 2.3c-.9 0-1.8-.4-1.8-1 0-.5.8-1 1.8-1s1.8.4 1.8 1c-.1.6-.9 1-1.8 1z"/></svg>