<svg xmlns="http://www.w3.org/2000/svg" preserveAspectRatio="xMidYMid" width="51" height="51" viewBox="0 0 51 51"><defs><style>.cls-2 { fill: #000000; stroke: #ff4700; stroke-linejoin: round; stroke-width: 1px; opacity: 0.8; fill-opacity: 0; }</style></defs><path d="M36.636 27.136c-.754 1.048-1.381 2.189-1.95 3.359l-2.963-2.962c.457-.857.945-1.704 1.518-2.513 3.022-6.215 3.335-11.17.884-13.961-1.392-1.577-3.748-2.483-6.469-2.483-1.471 0-2.97.257-4.454.761-2.052.7-4.218 2.002-5.766 3.911l-2.84-2.84c1.821-2.136 4.319-3.83 7.319-4.852 1.886-.642 3.807-.967 5.715-.967 3.89 0 7.35 1.398 9.493 3.834 2.554 2.905 4.563 8.473-.366 18.505l-.121.208zm-8.214-10.43l-.803-.02c-.298-.011-.614-.024-.934-.024-1.814 0-2.698.418-3.126 1.486-.082.397-.117.752-.134 1.091l-3.033-3.033c.118-.842.384-1.563.81-2.15.805-1.113 2.11-1.702 3.777-1.702 2.117 0 4.401.978 5.209 1.89.399.452.445.869.409 1.139-.163 1.323-1.677 1.323-2.175 1.323zm17.377 30.803l-42.308-42.308 1.71-1.71 42.308 42.309-1.71 1.709zm-34.484-29.122c.051-.802.18-1.584.368-2.346l3.558 3.558-.009.131-3.988-.258.071-1.085zm14.711 11.993c-.354 1.274-.992 2.527-1.863 3.543-1.108 1.289-2.437 2.001-3.743 2.001-.837 0-2.091-.297-3.309-1.717-.821-1.093-.472-3.412.302-4.96 1.083-2.165 3-2.793 4.779-1.522l.262.17c.03-.25.01-.644-.05-1.134l3.622 3.619zm-14.188 6.384c3.51 0 4.278 2.398 4.691 3.687.266.829.464 1.452 1.098 1.954 7.083-.195 9.243-4.008 11.413-9.008l3.037 3.038c-2.266 5.035-5.469 9.977-14.555 9.977l-.413-.003-.166.005c-.855 0-2.975-.465-4.226-4.77-.105-.329-.241-.754-.324-.862 0 .005-.119-.027-.409-.024l-1.099.024-.115-1.1-.033-2.918h1.101z" id="path-1" class="cls-2" fill-rule="evenodd"/></svg>