<svg xmlns="http://www.w3.org/2000/svg" preserveAspectRatio="xMidYMid" width="52" height="54" viewBox="0 0 52 54"><defs><style>.cls-2 { fill: #000000; stroke: #ff4700; stroke-linejoin: round; stroke-width: 1px; fill-opacity: 0; }</style></defs><path d="M46.663 4.167c-.208-.463-.707-.729-1.217-.653-.51.076-.903.481-.959.983-.005.039-.457 3.838-2.858 4.083-.292.03-.569.044-.846.044-.693 0-1.233-.093-1.755-.182-.462-.079-.898-.154-1.375-.154-1.056 0-2.017.39-3.118 1.266-2.26 1.798-2.553 4.909-2.56 6.334l-11.754 9.68c-.244.201-.391.494-.405.807-.014.312.107.617.332.838l.338.33-.145.141c-3.977 3.899-8.491 8.857-11.779 12.938-1.746 2.167-3.063 3.975-3.913 5.371-.941 1.546-1.679 3.108-.708 4.06.208.204.581.447 1.173.447 3.385 0 15.768-10.762 21.646-16.524l.143-.141.337.33c.215.21.505.327.806.327l.05-.001c.319-.014.617-.158.823-.398l9.984-11.649c1.502-.005 4.373-.401 6.968-2.944 5.266-5.163.977-14.921.792-15.333zm-18.69 27.556l-5.334-5.229 10.35-8.523 3.679 3.607-8.695 10.145z" id="path-1" class="cls-2" fill-rule="evenodd"/></svg>