<svg xmlns="http://www.w3.org/2000/svg" xmlns:xlink="http://www.w3.org/1999/xlink" preserveAspectRatio="xMidYMid" width="44" height="37" viewBox="0 0 44 37">
  <defs>
    <style>

      .cls-2 {
        fill: #000000;
        stroke: #ff4700;
        stroke-linejoin: round;
        stroke-width: 1px;
        opacity: 0.8;
        fill-opacity: 0;
      }
    </style>
  </defs>
  <path d="M16.496,13.888 C17.337,13.896 18.188,13.926 18.964,13.966 C18.964,13.966 15.610,9.288 15.610,9.288 C15.113,9.008 13.320,7.847 11.906,7.394 C11.906,7.394 11.972,7.097 11.972,7.097 C11.985,7.097 14.793,7.554 16.155,8.774 C16.155,8.774 19.881,13.945 19.881,13.945 C19.881,13.945 20.014,14.047 20.014,14.047 C20.418,14.085 20.800,14.130 21.120,14.178 C21.120,14.178 18.123,10.022 18.123,10.022 C18.123,10.022 19.231,6.715 19.231,6.715 C19.089,5.270 16.769,0.691 16.765,0.687 C16.765,0.687 16.999,0.498 16.999,0.498 C18.859,2.058 19.990,6.762 19.990,6.762 C19.990,6.762 18.958,9.891 18.958,9.891 C18.958,9.891 21.297,13.124 21.297,13.124 C21.228,12.559 21.189,11.901 21.189,11.179 C21.249,9.190 21.344,7.630 21.985,7.469 C22.632,7.630 22.724,9.186 22.785,11.179 C22.785,11.892 22.742,12.542 22.679,13.104 C22.679,13.104 25.002,9.891 25.002,9.891 C25.002,9.891 23.967,6.677 23.967,6.677 C24.165,6.151 25.448,1.763 26.972,0.494 C26.972,0.494 27.199,0.687 27.199,0.687 C27.199,0.691 24.874,5.270 24.725,6.651 C24.725,6.651 25.842,10.018 25.842,10.018 C25.842,10.018 22.841,14.170 22.841,14.170 C23.163,14.134 23.543,14.085 23.957,14.047 C23.957,14.047 24.087,13.945 24.087,13.945 C24.087,13.945 27.828,8.746 27.828,8.746 C29.168,7.552 31.982,7.099 31.994,7.091 C31.994,7.091 32.070,7.392 32.070,7.392 C30.650,7.840 28.870,8.993 28.356,9.286 C28.356,9.286 25.002,13.964 25.002,13.964 C25.779,13.920 26.623,13.894 27.474,13.894 C30.424,13.941 33.391,14.136 33.514,15.488 C33.514,15.622 33.481,15.758 33.413,15.885 C33.061,16.605 32.074,16.793 30.852,16.806 C28.729,16.806 25.796,16.131 23.898,15.639 C23.898,15.639 23.298,16.212 23.298,16.212 C23.993,16.431 25.070,16.883 25.804,17.666 C25.804,17.666 25.889,17.804 25.889,17.804 C25.889,17.804 26.241,20.676 26.241,20.676 C26.241,20.676 28.215,23.115 28.215,23.115 C28.215,23.115 27.992,23.325 27.992,23.325 C27.992,23.325 25.548,21.018 25.548,21.018 C25.548,21.018 25.200,18.139 25.200,18.139 C24.587,17.485 23.508,17.072 22.907,16.889 C22.827,17.072 22.716,17.239 22.556,17.358 C22.548,17.400 22.540,17.437 22.535,17.471 C22.535,17.471 22.544,17.466 22.544,17.466 C22.897,17.466 23.348,17.626 23.346,18.133 C23.348,18.160 23.348,18.195 23.346,18.211 C23.270,18.793 22.705,19.122 22.344,19.298 C22.344,19.298 22.162,22.680 22.162,22.680 C22.162,22.680 21.858,22.684 21.858,22.684 C21.858,22.684 21.527,19.243 21.527,19.243 C21.177,19.046 20.699,18.727 20.644,18.205 C20.644,18.178 20.637,18.152 20.637,18.131 C20.637,17.630 21.091,17.464 21.436,17.464 C21.436,17.464 21.441,17.464 21.441,17.464 C21.436,17.433 21.426,17.392 21.426,17.358 C21.263,17.235 21.151,17.067 21.077,16.883 C20.469,17.072 19.388,17.475 18.810,18.057 C18.810,18.057 18.369,21.105 18.369,21.105 C18.369,21.105 15.973,23.325 15.973,23.325 C15.973,23.325 15.757,23.115 15.757,23.115 C15.757,23.115 17.696,20.744 17.696,20.744 C17.696,20.744 18.119,17.719 18.119,17.719 C18.119,17.719 18.164,17.668 18.164,17.668 C18.898,16.876 19.977,16.437 20.665,16.210 C20.665,16.210 20.074,15.641 20.074,15.641 C18.176,16.146 15.236,16.808 13.117,16.813 C11.892,16.796 10.906,16.607 10.549,15.887 C10.487,15.760 10.456,15.628 10.458,15.499 C10.577,14.134 13.542,13.939 16.496,13.888 ZM42.969,25.609 C42.969,25.609 40.699,27.904 40.699,27.904 C40.699,27.904 42.370,29.589 42.370,29.589 C42.370,29.589 42.599,29.358 42.599,29.358 C42.702,29.256 42.868,29.256 42.969,29.358 C43.070,29.461 43.070,29.629 42.969,29.731 C42.969,29.731 42.740,29.967 42.740,29.967 C42.740,29.967 42.967,30.196 42.967,30.196 C43.070,30.298 43.072,30.466 42.969,30.567 C42.921,30.618 42.851,30.646 42.784,30.646 C42.719,30.646 42.652,30.620 42.601,30.569 C42.601,30.569 42.370,30.338 42.370,30.338 C42.370,30.338 40.699,32.023 40.699,32.023 C40.699,32.023 42.370,33.711 42.370,33.711 C42.370,33.711 42.601,33.478 42.601,33.478 C42.704,33.375 42.868,33.378 42.969,33.479 C43.072,33.584 43.070,33.749 42.967,33.853 C42.967,33.853 42.740,34.082 42.740,34.082 C42.740,34.082 42.969,34.318 42.969,34.318 C43.070,34.420 43.070,34.588 42.969,34.691 C42.921,34.740 42.851,34.768 42.784,34.768 C42.719,34.768 42.652,34.740 42.599,34.691 C42.599,34.691 42.370,34.456 42.370,34.456 C42.370,34.456 40.665,36.180 40.665,36.180 C40.670,36.205 40.691,36.222 40.691,36.241 C40.691,36.243 40.691,36.243 40.691,36.243 C40.691,36.303 40.661,36.351 40.630,36.394 C40.621,36.405 40.626,36.417 40.615,36.428 C40.569,36.473 40.502,36.507 40.430,36.507 C40.430,36.507 40.233,36.507 40.233,36.507 C40.166,36.507 40.099,36.481 40.048,36.430 C40.013,36.396 40.006,36.347 39.998,36.303 C39.992,36.282 39.973,36.265 39.973,36.243 C39.973,36.222 39.992,36.205 39.998,36.184 C39.998,36.184 39.998,36.182 39.998,36.182 C39.998,36.182 38.291,34.456 38.291,34.456 C38.291,34.456 36.588,36.180 36.588,36.180 C36.592,36.205 36.611,36.222 36.611,36.241 C36.611,36.243 36.611,36.243 36.611,36.243 C36.611,36.303 36.584,36.351 36.550,36.394 C36.542,36.405 36.546,36.417 36.538,36.428 C36.491,36.473 36.424,36.507 36.351,36.507 C36.351,36.507 36.156,36.507 36.156,36.507 C36.088,36.507 36.021,36.481 35.969,36.430 C35.933,36.396 35.929,36.347 35.920,36.303 C35.912,36.282 35.895,36.265 35.895,36.243 C35.895,36.222 35.912,36.205 35.920,36.184 C35.920,36.184 35.920,36.182 35.920,36.182 C35.920,36.182 34.215,34.458 34.215,34.458 C34.215,34.458 32.506,36.186 32.506,36.186 C32.515,36.209 32.532,36.222 32.532,36.243 C32.532,36.390 32.414,36.507 32.271,36.507 C32.271,36.507 32.078,36.507 32.078,36.507 C31.935,36.507 31.818,36.390 31.818,36.243 C31.818,36.220 31.839,36.207 31.845,36.184 C31.845,36.184 30.138,34.458 30.138,34.458 C30.138,34.458 28.433,36.182 28.433,36.182 C28.433,36.182 28.433,36.184 28.433,36.184 C28.439,36.207 28.458,36.222 28.458,36.243 C28.458,36.265 28.439,36.283 28.433,36.303 C28.421,36.347 28.417,36.396 28.383,36.430 C28.332,36.481 28.265,36.507 28.198,36.507 C28.198,36.507 27.999,36.507 27.999,36.507 C27.925,36.507 27.862,36.473 27.814,36.428 C27.803,36.417 27.808,36.405 27.799,36.394 C27.765,36.349 27.738,36.303 27.738,36.243 C27.738,36.243 27.738,36.243 27.738,36.241 C27.738,36.220 27.761,36.201 27.765,36.180 C27.765,36.180 26.056,34.454 26.056,34.454 C26.056,34.454 24.350,36.180 24.350,36.180 C24.356,36.205 24.377,36.222 24.377,36.241 C24.377,36.243 24.377,36.243 24.377,36.243 C24.377,36.303 24.347,36.351 24.318,36.394 C24.310,36.405 24.314,36.417 24.301,36.428 C24.257,36.473 24.192,36.507 24.116,36.507 C24.116,36.507 23.919,36.507 23.919,36.507 C23.852,36.507 23.787,36.481 23.734,36.430 C23.701,36.396 23.697,36.347 23.686,36.303 C23.680,36.282 23.659,36.265 23.659,36.243 C23.659,36.222 23.680,36.205 23.686,36.184 C23.686,36.184 23.686,36.182 23.686,36.182 C23.686,36.182 21.983,34.456 21.983,34.456 C21.983,34.456 20.278,36.182 20.278,36.182 C20.283,36.205 20.302,36.222 20.302,36.243 C20.302,36.243 20.302,36.246 20.302,36.246 C20.302,36.282 20.276,36.309 20.260,36.343 C20.248,36.373 20.246,36.409 20.222,36.430 C20.172,36.481 20.104,36.507 20.039,36.507 C20.039,36.507 19.844,36.507 19.844,36.507 C19.776,36.507 19.711,36.481 19.657,36.430 C19.622,36.396 19.616,36.347 19.608,36.303 C19.600,36.282 19.583,36.265 19.583,36.243 C19.583,36.222 19.600,36.205 19.608,36.184 C19.608,36.184 19.610,36.177 19.610,36.177 C19.610,36.177 17.905,34.454 17.905,34.454 C17.905,34.454 16.197,36.180 16.197,36.180 C16.204,36.205 16.223,36.222 16.223,36.241 C16.223,36.243 16.223,36.243 16.223,36.243 C16.223,36.303 16.195,36.351 16.163,36.394 C16.157,36.405 16.159,36.417 16.149,36.428 C16.102,36.473 16.036,36.507 15.965,36.507 C15.965,36.507 15.767,36.507 15.767,36.507 C15.700,36.507 15.634,36.481 15.582,36.430 C15.546,36.396 15.542,36.347 15.533,36.303 C15.526,36.282 15.507,36.265 15.507,36.243 C15.507,36.222 15.526,36.205 15.533,36.184 C15.533,36.184 15.533,36.182 15.533,36.182 C15.533,36.182 13.830,34.456 13.830,34.456 C13.830,34.456 12.120,36.182 12.120,36.182 C12.120,36.182 12.120,36.184 12.120,36.184 C12.128,36.207 12.147,36.222 12.147,36.243 C12.147,36.265 12.128,36.283 12.120,36.303 C12.110,36.347 12.104,36.396 12.071,36.430 C12.022,36.481 11.953,36.507 11.886,36.507 C11.886,36.507 11.689,36.507 11.689,36.507 C11.622,36.507 11.555,36.481 11.504,36.430 C11.467,36.396 11.463,36.347 11.455,36.303 C11.447,36.282 11.428,36.265 11.428,36.243 C11.428,36.222 11.447,36.205 11.455,36.184 C11.455,36.184 11.457,36.182 11.457,36.182 C11.457,36.182 9.749,34.456 9.749,34.456 C9.749,34.456 8.042,36.180 8.042,36.180 C8.049,36.205 8.070,36.222 8.070,36.241 C8.070,36.243 8.070,36.243 8.070,36.243 C8.070,36.303 8.040,36.351 8.010,36.394 C8.001,36.405 8.006,36.417 7.995,36.428 C7.949,36.473 7.883,36.507 7.810,36.507 C7.810,36.507 7.612,36.507 7.612,36.507 C7.545,36.507 7.479,36.481 7.428,36.430 C7.393,36.396 7.389,36.347 7.378,36.303 C7.371,36.282 7.352,36.265 7.352,36.243 C7.352,36.222 7.371,36.205 7.378,36.184 C7.378,36.184 7.378,36.182 7.378,36.182 C7.378,36.182 5.674,34.454 5.674,34.454 C5.674,34.454 3.970,36.180 3.970,36.180 C3.975,36.205 3.996,36.222 3.996,36.241 C3.996,36.243 3.996,36.243 3.996,36.243 C3.996,36.303 3.968,36.351 3.936,36.394 C3.927,36.405 3.932,36.417 3.920,36.428 C3.875,36.473 3.809,36.507 3.736,36.507 C3.736,36.507 3.536,36.507 3.536,36.507 C3.469,36.507 3.403,36.481 3.351,36.430 C3.317,36.396 3.312,36.347 3.302,36.303 C3.295,36.282 3.278,36.265 3.278,36.243 C3.278,36.222 3.295,36.207 3.302,36.184 C3.302,36.184 3.302,36.182 3.302,36.182 C3.302,36.182 1.594,34.456 1.594,34.456 C1.594,34.456 1.368,34.685 1.368,34.685 C1.319,34.734 1.251,34.762 1.183,34.762 C1.117,34.762 1.050,34.734 0.999,34.685 C0.898,34.581 0.898,34.414 0.999,34.312 C0.999,34.312 1.224,34.080 1.224,34.080 C1.224,34.080 0.999,33.853 0.999,33.853 C0.898,33.749 0.900,33.584 1.001,33.479 C1.102,33.378 1.267,33.380 1.368,33.482 C1.368,33.482 1.592,33.711 1.592,33.711 C1.592,33.711 3.265,32.023 3.265,32.023 C3.265,32.023 1.592,30.338 1.592,30.338 C1.592,30.338 1.368,30.565 1.368,30.565 C1.319,30.616 1.251,30.644 1.183,30.644 C1.117,30.644 1.050,30.618 1.001,30.567 C0.900,30.466 0.898,30.298 0.999,30.196 C0.999,30.196 1.224,29.969 1.224,29.969 C1.224,29.969 0.999,29.737 0.999,29.737 C0.898,29.635 0.898,29.466 0.999,29.364 C1.099,29.262 1.267,29.262 1.368,29.364 C1.368,29.364 1.592,29.589 1.592,29.589 C1.592,29.589 3.263,27.904 3.263,27.904 C3.263,27.904 0.997,25.613 0.997,25.613 C0.966,25.583 0.964,25.545 0.953,25.505 C0.705,25.399 0.500,25.195 0.500,24.902 C0.500,24.509 0.814,24.195 1.199,24.195 C1.199,24.195 42.801,24.195 42.801,24.195 C43.189,24.195 43.500,24.511 43.500,24.902 C43.500,25.212 43.282,25.424 43.009,25.522 C42.996,25.549 42.996,25.583 42.969,25.609 ZM6.279,25.609 C6.279,25.609 6.043,25.844 6.043,25.844 C6.043,25.844 7.709,27.530 7.709,27.530 C7.709,27.530 9.379,25.842 9.379,25.842 C9.379,25.842 9.147,25.609 9.147,25.609 C9.147,25.609 6.279,25.609 6.279,25.609 ZM10.351,25.609 C10.351,25.609 10.119,25.842 10.119,25.842 C10.119,25.842 11.788,27.528 11.788,27.528 C11.788,27.528 13.454,25.842 13.454,25.842 C13.454,25.842 13.219,25.609 13.219,25.609 C13.219,25.609 10.351,25.609 10.351,25.609 ZM14.426,25.609 C14.426,25.609 14.196,25.840 14.196,25.840 C14.196,25.840 15.864,27.530 15.864,27.530 C15.864,27.530 17.534,25.842 17.534,25.842 C17.534,25.842 17.302,25.609 17.302,25.609 C17.302,25.609 14.426,25.609 14.426,25.609 ZM18.506,25.609 C18.506,25.609 18.274,25.842 18.274,25.842 C18.274,25.842 19.942,27.530 19.942,27.530 C19.942,27.530 21.610,25.842 21.610,25.842 C21.610,25.842 21.378,25.609 21.378,25.609 C21.378,25.609 18.506,25.609 18.506,25.609 ZM22.587,25.609 C22.587,25.609 22.351,25.844 22.351,25.844 C22.351,25.844 24.016,27.528 24.016,27.528 C24.016,27.528 25.685,25.840 25.685,25.840 C25.685,25.840 25.456,25.609 25.456,25.609 C25.456,25.609 22.587,25.609 22.587,25.609 ZM26.657,25.609 C26.657,25.609 26.426,25.840 26.426,25.840 C26.426,25.840 28.097,27.530 28.097,27.530 C28.097,27.530 29.769,25.842 29.769,25.842 C29.769,25.842 29.536,25.609 29.536,25.609 C29.536,25.609 26.657,25.609 26.657,25.609 ZM30.739,25.609 C30.739,25.609 30.506,25.842 30.506,25.842 C30.506,25.842 32.175,27.528 32.175,27.528 C32.175,27.528 33.842,25.840 33.842,25.840 C33.842,25.840 33.611,25.609 33.611,25.609 C33.611,25.609 30.739,25.609 30.739,25.609 ZM5.674,26.214 C5.674,26.214 4.002,27.901 4.002,27.901 C4.002,27.901 5.670,29.589 5.670,29.589 C5.670,29.589 7.342,27.901 7.342,27.901 C7.342,27.901 5.674,26.214 5.674,26.214 ZM6.039,29.965 C6.039,29.965 7.709,31.652 7.709,31.652 C7.709,31.652 9.377,29.967 9.377,29.967 C9.377,29.967 7.709,28.277 7.709,28.277 C7.709,28.277 6.039,29.965 6.039,29.965 ZM9.749,29.589 C9.749,29.589 11.418,27.905 11.418,27.905 C11.418,27.905 9.749,26.216 9.749,26.216 C9.749,26.216 8.081,27.904 8.081,27.904 C8.081,27.904 9.749,29.589 9.749,29.589 ZM10.117,29.967 C10.117,29.967 11.788,31.652 11.788,31.652 C11.788,31.652 13.456,29.967 13.456,29.967 C13.456,29.967 11.783,28.277 11.783,28.277 C11.783,28.277 10.117,29.967 10.117,29.967 ZM13.828,29.589 C13.828,29.589 15.492,27.905 15.492,27.905 C15.492,27.905 13.823,26.216 13.823,26.216 C13.823,26.216 12.155,27.901 12.155,27.901 C12.155,27.901 13.828,29.589 13.828,29.589 ZM14.194,29.965 C14.194,29.965 15.862,31.652 15.862,31.652 C15.862,31.652 17.530,29.967 17.530,29.967 C17.530,29.967 15.862,28.277 15.862,28.277 C15.862,28.277 14.194,29.965 14.194,29.965 ZM17.905,29.593 C17.905,29.593 19.573,27.905 19.573,27.905 C19.573,27.905 17.905,26.216 17.905,26.216 C17.905,26.216 16.233,27.904 16.233,27.904 C16.233,27.904 17.905,29.593 17.905,29.593 ZM18.272,29.967 C18.272,29.967 19.942,31.652 19.942,31.652 C19.942,31.652 21.609,29.967 21.609,29.967 C21.609,29.967 19.942,28.277 19.942,28.277 C19.942,28.277 18.272,29.967 18.272,29.967 ZM21.981,29.589 C21.981,29.589 23.650,27.904 23.650,27.904 C23.650,27.904 21.981,26.218 21.981,26.218 C21.981,26.218 20.312,27.904 20.312,27.904 C20.312,27.904 21.981,29.589 21.981,29.589 ZM22.346,29.967 C22.346,29.967 24.016,31.652 24.016,31.652 C24.016,31.652 25.685,29.967 25.685,29.967 C25.685,29.967 24.016,28.277 24.016,28.277 C24.016,28.277 22.346,29.967 22.346,29.967 ZM26.056,29.593 C26.056,29.593 27.730,27.904 27.730,27.904 C27.730,27.904 26.056,26.214 26.056,26.214 C26.056,26.214 24.389,27.904 24.389,27.904 C24.389,27.904 26.056,29.593 26.056,29.593 ZM26.426,29.967 C26.426,29.967 28.095,31.652 28.095,31.652 C28.095,31.652 29.764,29.965 29.764,29.965 C29.764,29.965 28.095,28.275 28.095,28.275 C28.095,28.275 26.426,29.967 26.426,29.967 ZM30.136,29.589 C30.136,29.589 31.805,27.901 31.805,27.901 C31.805,27.901 30.138,26.216 30.138,26.216 C30.138,26.216 28.467,27.904 28.467,27.904 C28.467,27.904 30.136,29.589 30.136,29.589 ZM30.506,29.965 C30.506,29.965 32.175,31.650 32.175,31.650 C32.175,31.650 33.842,29.965 33.842,29.965 C33.842,29.965 32.175,28.275 32.175,28.275 C32.175,28.275 30.506,29.965 30.506,29.965 ZM34.215,29.589 C34.215,29.589 35.883,27.904 35.883,27.904 C35.883,27.904 34.215,26.216 34.215,26.216 C34.215,26.216 32.544,27.901 32.544,27.901 C32.544,27.901 34.215,29.589 34.215,29.589 ZM34.585,29.965 C34.585,29.965 36.254,31.650 36.254,31.650 C36.254,31.650 37.919,29.967 37.919,29.967 C37.919,29.967 36.252,28.277 36.252,28.277 C36.252,28.277 34.585,29.965 34.585,29.965 ZM38.291,29.589 C38.291,29.589 39.964,27.904 39.964,27.904 C39.964,27.904 38.291,26.216 38.291,26.216 C38.291,26.216 36.620,27.901 36.620,27.901 C36.620,27.901 38.291,29.589 38.291,29.589 ZM37.690,25.609 C37.690,25.609 34.814,25.609 34.814,25.609 C34.814,25.609 34.585,25.840 34.585,25.840 C34.585,25.840 36.254,27.530 36.254,27.530 C36.254,27.530 37.924,25.842 37.924,25.842 C37.924,25.842 37.690,25.609 37.690,25.609 ZM3.635,27.530 C3.635,27.530 5.305,25.842 5.305,25.842 C5.305,25.842 5.073,25.609 5.073,25.609 C5.073,25.609 1.732,25.609 1.732,25.609 C1.732,25.609 3.635,27.530 3.635,27.530 ZM3.635,31.652 C3.635,31.652 5.303,29.965 5.303,29.965 C5.303,29.965 3.635,28.277 3.635,28.277 C3.635,28.277 1.967,29.967 1.967,29.967 C1.967,29.967 3.635,31.652 3.635,31.652 ZM5.303,34.084 C5.303,34.084 3.635,32.395 3.635,32.395 C3.635,32.395 1.967,34.082 1.967,34.082 C1.967,34.082 3.635,35.772 3.635,35.772 C3.635,35.772 5.303,34.084 5.303,34.084 ZM5.670,33.709 C5.670,33.709 7.340,32.023 7.340,32.023 C7.340,32.023 5.670,30.338 5.670,30.338 C5.670,30.338 4.004,32.023 4.004,32.023 C4.004,32.023 5.670,33.709 5.670,33.709 ZM9.379,34.082 C9.379,34.082 7.711,32.395 7.711,32.395 C7.711,32.395 6.041,34.084 6.041,34.084 C6.041,34.084 7.711,35.772 7.711,35.772 C7.711,35.772 9.379,34.082 9.379,34.082 ZM9.749,33.711 C9.749,33.711 11.420,32.023 11.420,32.023 C11.420,32.023 9.749,30.338 9.749,30.338 C9.749,30.338 8.079,32.023 8.079,32.023 C8.079,32.023 9.749,33.711 9.749,33.711 ZM13.456,34.082 C13.456,34.082 11.788,32.395 11.788,32.395 C11.788,32.395 10.117,34.082 10.117,34.082 C10.117,34.082 11.783,35.772 11.783,35.772 C11.783,35.772 13.456,34.082 13.456,34.082 ZM15.494,32.023 C15.494,32.023 13.826,30.338 13.826,30.338 C13.826,30.338 12.157,32.021 12.157,32.021 C12.157,32.021 13.826,33.707 13.826,33.707 C13.826,33.707 15.494,32.023 15.494,32.023 ZM17.532,34.082 C17.532,34.082 15.864,32.395 15.864,32.395 C15.864,32.395 14.196,34.084 14.196,34.084 C14.196,34.084 15.864,35.772 15.864,35.772 C15.864,35.772 17.532,34.082 17.532,34.082 ZM17.905,33.711 C17.905,33.711 19.575,32.023 19.575,32.023 C19.575,32.023 17.905,30.338 17.905,30.338 C17.905,30.338 16.231,32.023 16.231,32.023 C16.231,32.023 17.905,33.711 17.905,33.711 ZM21.609,34.082 C21.609,34.082 19.942,32.395 19.942,32.395 C19.942,32.395 18.272,34.082 18.272,34.082 C18.272,34.082 19.942,35.772 19.942,35.772 C19.942,35.772 21.609,34.082 21.609,34.082 ZM21.981,33.711 C21.981,33.711 23.650,32.023 23.650,32.023 C23.650,32.023 21.981,30.338 21.981,30.338 C21.981,30.338 20.312,32.023 20.312,32.023 C20.312,32.023 21.981,33.711 21.981,33.711 ZM25.687,34.082 C25.687,34.082 24.020,32.395 24.020,32.395 C24.020,32.395 22.349,34.082 22.349,34.082 C22.349,34.082 24.020,35.772 24.020,35.772 C24.020,35.772 25.687,34.082 25.687,34.082 ZM26.056,33.711 C26.056,33.711 27.728,32.023 27.728,32.023 C27.728,32.023 26.056,30.338 26.056,30.338 C26.056,30.338 24.389,32.023 24.389,32.023 C24.389,32.023 26.056,33.711 26.056,33.711 ZM29.764,34.084 C29.764,34.084 28.095,32.395 28.095,32.395 C28.095,32.395 26.426,34.082 26.426,34.082 C26.426,34.082 28.095,35.774 28.095,35.774 C28.095,35.774 29.764,34.084 29.764,34.084 ZM30.136,33.711 C30.136,33.711 31.805,32.023 31.805,32.023 C31.805,32.023 30.136,30.338 30.136,30.338 C30.136,30.338 28.467,32.023 28.467,32.023 C28.467,32.023 30.136,33.711 30.136,33.711 ZM33.844,34.084 C33.844,34.084 32.175,32.397 32.175,32.397 C32.175,32.397 30.508,34.084 30.508,34.084 C30.508,34.084 32.175,35.774 32.175,35.774 C32.175,35.774 33.844,34.084 33.844,34.084 ZM34.215,33.711 C34.215,33.711 35.885,32.023 35.885,32.023 C35.885,32.023 34.215,30.338 34.215,30.338 C34.215,30.338 32.544,32.023 32.544,32.023 C32.544,32.023 34.215,33.711 34.215,33.711 ZM37.919,34.082 C37.919,34.082 36.254,32.397 36.254,32.397 C36.254,32.397 34.585,34.084 34.585,34.084 C34.585,34.084 36.252,35.772 36.252,35.772 C36.252,35.772 37.919,34.082 37.919,34.082 ZM38.293,33.711 C38.293,33.711 39.964,32.023 39.964,32.023 C39.964,32.023 38.293,30.338 38.293,30.338 C38.293,30.338 36.624,32.023 36.624,32.023 C36.624,32.023 38.293,33.711 38.293,33.711 ZM40.330,32.395 C40.330,32.395 38.658,34.082 38.658,34.082 C38.658,34.082 40.330,35.772 40.330,35.772 C40.330,35.772 42.001,34.082 42.001,34.082 C42.001,34.082 40.330,32.395 40.330,32.395 ZM40.330,28.275 C40.330,28.275 38.658,29.965 38.658,29.965 C38.658,29.965 40.330,31.650 40.330,31.650 C40.330,31.650 42.001,29.965 42.001,29.965 C42.001,29.965 40.330,28.275 40.330,28.275 ZM42.236,25.609 C42.236,25.609 38.893,25.609 38.893,25.609 C38.893,25.609 38.658,25.842 38.658,25.842 C38.658,25.842 40.330,27.530 40.330,27.530 C40.330,27.530 42.236,25.609 42.236,25.609 Z" id="path-1" class="cls-2" fill-rule="evenodd"/>
</svg>
