<?xml version="1.0" encoding="utf-8"?>
<!-- Generator: Adobe Illustrator 18.1.1, SVG Export Plug-In . SVG Version: 6.00 Build 0)  -->
<svg version="1.1" xmlns="http://www.w3.org/2000/svg" xmlns:xlink="http://www.w3.org/1999/xlink" x="0px" y="0px"
	 viewBox="0 0 609.3 88.6" enable-background="new 0 0 609.3 88.6" xml:space="preserve">
<g id="Vrstva_2">
</g>
<g id="Vrstva_1">
	<polygon fill="#F04B23" points="124.8,45.4 10.1,45.5 5.6,62.4 121.3,58.7 	"/>
	<polygon fill="#8C8D8D" points="15.5,24.6 11.9,38.4 126.7,38.3 131.2,20.9 	"/>
	<polygon fill="#F04B23" points="133.1,13.8 136.5,0.9 21.7,0.9 17.4,17.5 	"/>
	<polygon fill="#8C8D8D" points="3.8,69.5 0,83.8 114.7,83.7 119.5,65.8 	"/>
	<g>
		<g>
			<path fill="#8C8D8D" d="M194.4,45.5c-3.4,2.8-7.3,5-11.5,6.4c-4.3,1.4-9.4,2.1-15.4,2.1h-12.2l-7.2,31.3h-11.2l19.3-83.5h22
				c5.1,0,9.3,0.4,12.6,1.3c3.3,0.9,6.1,2.2,8.2,3.9c2.2,1.7,3.9,3.7,5.1,6.2c1.2,2.4,1.7,5.3,1.7,8.7c0,4.6-1,8.9-3,13
				C200.9,38.9,198.1,42.5,194.4,45.5z M193.9,23.7c0-1.9-0.3-3.7-1-5.3c-0.6-1.6-1.6-3-3-4c-1.6-1.2-3.5-2.1-5.7-2.7
				c-2.2-0.5-5.1-0.8-8.6-0.8h-10.4l-7.8,33.9h10c4.5,0,8.2-0.4,11.2-1.2c3-0.8,5.5-2.1,7.7-3.9c2.5-2.1,4.4-4.5,5.7-7.1
				C193.3,29.9,193.9,26.9,193.9,23.7z"/>
			<path fill="#8C8D8D" d="M270.2,85.3h-12.9l-21.9-33.4h-16l-7.7,33.4h-11.2l19.3-83.5h22.7c5.1,0,9.2,0.3,12.4,1
				c3.2,0.7,5.9,1.8,8.3,3.6c2.1,1.5,3.7,3.4,4.9,5.6c1.2,2.2,1.8,4.9,1.8,8.1c0,7-2.2,13.1-6.5,18.3c-4.3,5.3-10,8.9-17.1,11
				L270.2,85.3z M257.7,22.5c0-2-0.3-3.6-0.9-5c-0.6-1.4-1.5-2.5-2.7-3.5c-1.4-1.2-3.1-2-5.2-2.4c-2-0.4-4.6-0.7-7.5-0.7h-12.5
				L221.5,43h11.7c3.6,0,6.8-0.3,9.5-1c2.7-0.7,5.1-1.8,7.3-3.5c2.5-1.9,4.4-4.2,5.7-7C257.1,28.6,257.7,25.6,257.7,22.5z"/>
			<path fill="#8C8D8D" d="M358.5,31.3c0,7.3-1.1,14.2-3.3,21c-2.2,6.7-5.4,12.7-9.5,17.8c-4.3,5.3-9.4,9.4-15.4,12.4
				c-6,3-12.8,4.5-20.3,4.5c-10,0-17.8-2.7-23.4-8.2c-5.6-5.4-8.4-13.2-8.4-23.2c0-7.6,1.1-14.7,3.4-21.4c2.2-6.6,5.5-12.5,9.7-17.7
				c4.1-5,9.2-9,15.3-12c6.1-3,12.8-4.5,20-4.5c9.9,0,17.7,2.7,23.4,8.1C355.6,13.5,358.5,21.2,358.5,31.3z M337.2,64.4
				c3.1-4.3,5.5-9,7.1-14.2c1.6-5.2,2.4-11,2.4-17.3c0-7.6-1.9-13.5-5.8-17.5c-3.8-4.1-9.2-6.1-16.1-6.1c-5.4,0-10.2,1.2-14.5,3.7
				c-4.3,2.4-8,5.8-11.1,9.9c-3,4.1-5.3,8.9-6.9,14.3c-1.6,5.4-2.4,11-2.4,16.8c0,7.7,1.9,13.6,5.8,17.7c3.8,4.1,9.2,6.2,16.2,6.2
				c5.3,0,10.1-1.2,14.4-3.6C330.6,71.7,334.3,68.5,337.2,64.4z"/>
		</g>
	</g>
	<g>
		<path fill="#F04B23" d="M443.6,86.9h-21.7L420,69.8h-30.7l-9.8,17.1h-22.5l50.2-83.5h25L443.6,86.9z M418.4,54.9L415,24.9
			l-17.2,29.9H418.4z"/>
		<path fill="#F04B23" d="M509.4,86.9H449l19.3-83.5h21.7l-15.6,67.4h38.8L509.4,86.9z"/>
		<path fill="#F04B23" d="M609.3,3.4l-12.2,52.3c-2.7,11.6-7.4,19.9-13.9,25.2c-6.5,5.2-16,7.8-28.3,7.8c-11,0-19.3-2-25-5.9
			c-5.7-3.9-8.5-9.9-8.5-17.9c0-1.6,0.1-3.3,0.4-5c0.3-1.7,0.5-3.2,0.8-4.6l12.1-51.8h21.8l-12.1,51.8c-0.3,1-0.5,2.2-0.6,3.4
			c-0.2,1.3-0.3,2.3-0.3,3.1c0,3.5,1.1,6.2,3.2,8c2.1,1.8,5.6,2.7,10.5,2.7c4.8,0,8.6-1.3,11.6-3.9c2.9-2.6,5.1-6.7,6.3-12.2
			l12.3-52.9H609.3z"/>
	</g>
	<g>
		<path fill="#8C8D8D" d="M638.1,34.1c-4.4,0-8.2-1.6-11.3-4.7c-3.1-3.1-4.7-6.9-4.7-11.3c0-4.4,1.6-8.2,4.7-11.3
			c3.1-3.1,6.9-4.6,11.3-4.6c4.4,0,8.2,1.6,11.3,4.6c3.1,3.1,4.6,6.9,4.6,11.3c0,4.4-1.6,8.2-4.7,11.3
			C646.3,32.5,642.5,34.1,638.1,34.1z M638.1,30.6c3.4,0,6.3-1.2,8.8-3.7c2.5-2.4,3.7-5.4,3.7-8.7c0-3.4-1.2-6.3-3.7-8.8
			c-2.4-2.4-5.4-3.7-8.8-3.7c-3.4,0-6.3,1.2-8.7,3.7c-2.4,2.4-3.7,5.4-3.7,8.8c0,3.4,1.2,6.3,3.7,8.7
			C631.8,29.4,634.7,30.6,638.1,30.6z M631.6,27.8V8.9h5.5c4.9,0,7.3,1.6,7.3,4.9c0,2.3-1.3,4.2-3.9,5.5l4.5,8.5h-4l-4.1-7.7h-1.8
			v7.7H631.6z M635.1,17.5h1.6c2.5,0,3.8-1.1,3.8-3.3c0-1.8-1.2-2.6-3.7-2.6h-1.7V17.5z"/>
	</g>
</g>
</svg>
