<svg xmlns="http://www.w3.org/2000/svg" viewBox="0 0 609.3 88.6" enable-background="new 0 0 609.3 88.6"><g><path fill="#F04B23" d="M124.8 45.4l-114.7.1-4.5 16.9 115.7-3.7z"/><path fill="#8C8D8D" d="M15.5 24.6l-3.6 13.8 114.8-.1 4.5-17.4z"/><path fill="#F04B23" d="M133.1 13.8l3.4-12.9h-114.8l-4.3 16.6z"/><path fill="#8C8D8D" d="M3.8 69.5l-3.8 14.3 114.7-.1 4.8-17.9z"/><g fill="#8C8D8D"><path d="M194.4 45.5c-3.4 2.8-7.3 5-11.5 6.4-4.3 1.4-9.4 2.1-15.4 2.1h-12.2l-7.2 31.3h-11.2l19.3-83.5h22c5.1 0 9.3.4 12.6 1.3 3.3.9 6.1 2.2 8.2 3.9 2.2 1.7 3.9 3.7 5.1 6.2 1.2 2.4 1.7 5.3 1.7 8.7 0 4.6-1 8.9-3 13-1.9 4-4.7 7.6-8.4 10.6zm-.5-21.8c0-1.9-.3-3.7-1-5.3-.6-1.6-1.6-3-3-4-1.6-1.2-3.5-2.1-5.7-2.7-2.2-.5-5.1-.8-8.6-.8h-10.4l-7.8 33.9h10c4.5 0 8.2-.4 11.2-1.2 3-.8 5.5-2.1 7.7-3.9 2.5-2.1 4.4-4.5 5.7-7.1 1.3-2.7 1.9-5.7 1.9-8.9zM270.2 85.3h-12.9l-21.9-33.4h-16l-7.7 33.4h-11.2l19.3-83.5h22.7c5.1 0 9.2.3 12.4 1 3.2.7 5.9 1.8 8.3 3.6 2.1 1.5 3.7 3.4 4.9 5.6 1.2 2.2 1.8 4.9 1.8 8.1 0 7-2.2 13.1-6.5 18.3-4.3 5.3-10 8.9-17.1 11l23.9 35.9zm-12.5-62.8c0-2-.3-3.6-.9-5-.6-1.4-1.5-2.5-2.7-3.5-1.4-1.2-3.1-2-5.2-2.4-2-.4-4.6-.7-7.5-.7h-12.5l-7.4 32.1h11.7c3.6 0 6.8-.3 9.5-1s5.1-1.8 7.3-3.5c2.5-1.9 4.4-4.2 5.7-7 1.4-2.9 2-5.9 2-9zM358.5 31.3c0 7.3-1.1 14.2-3.3 21-2.2 6.7-5.4 12.7-9.5 17.8-4.3 5.3-9.4 9.4-15.4 12.4s-12.8 4.5-20.3 4.5c-10 0-17.8-2.7-23.4-8.2-5.6-5.4-8.4-13.2-8.4-23.2 0-7.6 1.1-14.7 3.4-21.4 2.2-6.6 5.5-12.5 9.7-17.7 4.1-5 9.2-9 15.3-12 6.1-3 12.8-4.5 20-4.5 9.9 0 17.7 2.7 23.4 8.1 5.6 5.4 8.5 13.1 8.5 23.2zm-21.3 33.1c3.1-4.3 5.5-9 7.1-14.2 1.6-5.2 2.4-11 2.4-17.3 0-7.6-1.9-13.5-5.8-17.5-3.8-4.1-9.2-6.1-16.1-6.1-5.4 0-10.2 1.2-14.5 3.7-4.3 2.4-8 5.8-11.1 9.9-3 4.1-5.3 8.9-6.9 14.3-1.6 5.4-2.4 11-2.4 16.8 0 7.7 1.9 13.6 5.8 17.7 3.8 4.1 9.2 6.2 16.2 6.2 5.3 0 10.1-1.2 14.4-3.6 4.3-2.6 8-5.8 10.9-9.9z"/></g><g fill="#F04B23"><path d="M443.6 86.9h-21.7l-1.9-17.1h-30.7l-9.8 17.1h-22.5l50.2-83.5h25l11.4 83.5zm-25.2-32l-3.4-30-17.2 29.9h20.6zM509.4 86.9h-60.4l19.3-83.5h21.7l-15.6 67.4h38.8l-3.8 16.1zM609.3 3.4l-12.2 52.3c-2.7 11.6-7.4 19.9-13.9 25.2-6.5 5.2-16 7.8-28.3 7.8-11 0-19.3-2-25-5.9-5.7-3.9-8.5-9.9-8.5-17.9 0-1.6.1-3.3.4-5 .3-1.7.5-3.2.8-4.6l12.1-51.8h21.8l-12.1 51.8c-.3 1-.5 2.2-.6 3.4-.2 1.3-.3 2.3-.3 3.1 0 3.5 1.1 6.2 3.2 8 2.1 1.8 5.6 2.7 10.5 2.7 4.8 0 8.6-1.3 11.6-3.9 2.9-2.6 5.1-6.7 6.3-12.2l12.3-52.9h21.9z"/></g><path fill="#8C8D8D" d="M638.1 34.1c-4.4 0-8.2-1.6-11.3-4.7-3.1-3.1-4.7-6.9-4.7-11.3s1.6-8.2 4.7-11.3c3.1-3.1 6.9-4.6 11.3-4.6s8.2 1.6 11.3 4.6c3.1 3.1 4.6 6.9 4.6 11.3s-1.6 8.2-4.7 11.3c-3 3.1-6.8 4.7-11.2 4.7zm0-3.5c3.4 0 6.3-1.2 8.8-3.7 2.5-2.4 3.7-5.4 3.7-8.7 0-3.4-1.2-6.3-3.7-8.8-2.4-2.4-5.4-3.7-8.8-3.7-3.4 0-6.3 1.2-8.7 3.7-2.4 2.4-3.7 5.4-3.7 8.8 0 3.4 1.2 6.3 3.7 8.7 2.4 2.5 5.3 3.7 8.7 3.7zm-6.5-2.8v-18.9h5.5c4.9 0 7.3 1.6 7.3 4.9 0 2.3-1.3 4.2-3.9 5.5l4.5 8.5h-4l-4.1-7.7h-1.8v7.7h-3.5zm3.5-10.3h1.6c2.5 0 3.8-1.1 3.8-3.3 0-1.8-1.2-2.6-3.7-2.6h-1.7v5.9z"/></g></svg>