<?xml version="1.0" encoding="utf-8"?>
<!-- Generator: Adobe Illustrator 16.0.0, SVG Export Plug-In . SVG Version: 6.00 Build 0)  -->
<!DOCTYPE svg PUBLIC "-//W3C//DTD SVG 1.1//EN" "http://www.w3.org/Graphics/SVG/1.1/DTD/svg11.dtd">
<svg version="1.1" xmlns="http://www.w3.org/2000/svg" xmlns:xlink="http://www.w3.org/1999/xlink" x="0px" y="0px" width="30px"
	 height="30px" viewBox="0 0 30 30" enable-background="new 0 0 30 30" xml:space="preserve">
<g id="Ellipse_4_1_" enable-background="new    ">
	<g id="Ellipse_4">
		<g>
			<circle fill="#FF4700" cx="15" cy="15" r="11"/>
		</g>
	</g>
</g>
<g id="Forma_1_1_" enable-background="new    ">
	<g id="Forma_1">
		<g>
			<path fill="#FFFFFF" d="M18.844,16.613c-0.482,0.775-2.021,1.342-3.844,1.342s-3.362-0.566-3.843-1.342
				C11.055,16.449,11,16.537,11,16.619c0,0.081,0,1.137,0,1.137C11,18.857,12.791,20,15,20s4-1.143,4-2.244c0,0,0-1.056,0-1.137
				C19,16.537,18.945,16.449,18.844,16.613z M18.85,13.707c-0.474,0.686-2.018,1.188-3.85,1.188c-1.832,0-3.376-0.502-3.85-1.188
				c-0.098-0.141-0.15-0.064-0.15,0c0,0.063,0,1.338,0,1.338c0,1.002,1.791,1.813,4,1.813s4-0.812,4-1.813c0,0,0-1.274,0-1.338
				C19,13.643,18.947,13.566,18.85,13.707z M15,10c-2.209,0-4,0.67-4,1.496v0.715c0,0.877,1.791,1.587,4,1.587s4-0.71,4-1.587
				v-0.715C19,10.67,17.209,10,15,10z"/>
		</g>
	</g>
</g>
</svg>
